<?xml version="1.0" encoding="UTF-8" standalone="no"?>
<!-- Created with Inkscape (http://www.inkscape.org/) -->

<svg
   width="210mm"
   height="297mm"
   viewBox="0 0 210 297"
   version="1.1"
   id="svg5"
   inkscape:version="1.1.1 (3bf5ae0d25, 2021-09-20)"
   sodipodi:docname="Fish1.svg"
   xmlns:inkscape="http://www.inkscape.org/namespaces/inkscape"
   xmlns:sodipodi="http://sodipodi.sourceforge.net/DTD/sodipodi-0.dtd"
   xmlns:xlink="http://www.w3.org/1999/xlink"
   xmlns="http://www.w3.org/2000/svg"
   xmlns:svg="http://www.w3.org/2000/svg">
  <sodipodi:namedview
     id="namedview7"
     pagecolor="#ffffff"
     bordercolor="#666666"
     borderopacity="1.0"
     inkscape:pageshadow="2"
     inkscape:pageopacity="0.0"
     inkscape:pagecheckerboard="0"
     inkscape:document-units="mm"
     showgrid="false"
     inkscape:zoom="1.0230034"
     inkscape:cx="427.66231"
     inkscape:cy="711.14133"
     inkscape:window-width="1920"
     inkscape:window-height="1001"
     inkscape:window-x="-9"
     inkscape:window-y="-9"
     inkscape:window-maximized="1"
     inkscape:current-layer="layer1" />
  <defs
     id="defs2">
    <rect
       x="707.72006"
       y="639.29409"
       width="360.77374"
       height="173.61264"
       id="rect36965" />
    <pattern
       inkscape:collect="always"
       xlink:href="#Strips1_64"
       id="pattern24782"
       patternTransform="matrix(-9.8798122,-0.56258062,-0.25600982,10.000196,217.84423,9.0427986)" />
    <pattern
       inkscape:collect="always"
       patternUnits="userSpaceOnUse"
       width="65"
       height="1"
       patternTransform="translate(0,0) scale(10,10)"
       id="Strips1_64"
       inkscape:stockid="Stripes 1:64">
      <rect
         style="fill:black;stroke:none"
         x="0"
         y="-0.5"
         width="1"
         height="2"
         id="rect6566" />
    </pattern>
    <linearGradient
       id="linearGradient7558"
       inkscape:swatch="solid">
      <stop
         style="stop-color:#000000;stop-opacity:1;"
         offset="0"
         id="stop7556" />
    </linearGradient>
    <linearGradient
       id="linearGradient7534"
       inkscape:swatch="solid">
      <stop
         style="stop-color:#000000;stop-opacity:1;"
         offset="0"
         id="stop7532" />
    </linearGradient>
    <linearGradient
       id="linearGradient7488"
       inkscape:swatch="solid">
      <stop
         style="stop-color:#000000;stop-opacity:1;"
         offset="0"
         id="stop7486" />
    </linearGradient>
    <meshgradient
       inkscape:collect="always"
       id="meshgradient24896"
       gradientUnits="userSpaceOnUse"
       x="73.977928"
       y="165.79295"
       gradientTransform="matrix(-0.98798122,-0.05625806,-0.02560098,1.0000196,218.34867,9.330538)">
      <meshrow
         id="meshrow24898">
        <meshpatch
           id="meshpatch24900">
          <stop
             path="c 21.9781,0  43.9562,0  65.9344,0"
             style="stop-color:#ffffff;stop-opacity:1"
             id="stop24902" />
          <stop
             path="c 0,20.1677  0,40.3354  0,60.5031"
             style="stop-color:#800080;stop-opacity:1"
             id="stop24904" />
          <stop
             path="c -21.9781,0  -43.9562,0  -65.9344,0"
             style="stop-color:#ffffff;stop-opacity:1"
             id="stop24906" />
          <stop
             path="c 0,-20.1677  0,-40.3354  0,-60.5031"
             style="stop-color:#800080;stop-opacity:1"
             id="stop24908" />
        </meshpatch>
      </meshrow>
    </meshgradient>
  </defs>
  <g
     inkscape:label="Layer 1"
     inkscape:groupmode="layer"
     id="layer1">
    <g
       id="g37989">
      <g
         id="g4010"
         transform="translate(-23.277049,157.76667)">
        <path
           style="fill:none;stroke:#000000;stroke-width:0.5;stroke-miterlimit:4;stroke-dasharray:none;stroke-opacity:1"
           d="m 141.96388,17.840003 c 0,-0.018 0.15174,-0.17886 0.3372,-0.35746 0.25522,-0.24577 0.31497,-0.27493 0.24574,-0.11993 -0.12291,0.27522 -0.58294,0.65194 -0.58294,0.47739 z"
           id="path3480" />
        <path
           style="fill:none;stroke:#000000;stroke-width:0.5;stroke-miterlimit:4;stroke-dasharray:none;stroke-opacity:1"
           d="m 137.11836,20.086993 c -0.10608,-0.13532 -0.15373,-0.24603 -0.10588,-0.24603 0.0478,0 0.14753,0.11071 0.22151,0.24603 0.074,0.13531 0.12165,0.24602 0.1059,0.24602 -0.0158,0 -0.11545,-0.11071 -0.22153,-0.24602 z"
           id="path3418" />
        <path
           style="fill:none;stroke:#000000;stroke-width:0.5;stroke-miterlimit:4;stroke-dasharray:none;stroke-opacity:1"
           d="m 135.44062,20.739213 c -0.0932,-0.18082 0.0532,-0.39223 0.38031,-0.54908 0.18282,-0.0877 0.35244,-0.13538 0.37691,-0.10605 0.0245,0.0293 0.0291,0.0669 0.0103,0.0836 -0.0188,0.0166 -0.18853,0.17272 -0.37713,0.3469 -0.1886,0.17417 -0.36427,0.27528 -0.39037,0.22468 z"
           id="path3400" />
        <path
           style="fill:none;stroke:#000000;stroke-width:0.5;stroke-miterlimit:4;stroke-dasharray:none;stroke-opacity:1"
           d="m 136.70774,22.418373 c 0,-0.11893 0.1558,-0.2576 0.21276,-0.18935 0.0207,0.0248 -0.0187,0.10106 -0.0876,0.16952 -0.078,0.0776 -0.12517,0.0851 -0.12517,0.0198 z"
           id="path3386" />
        <path
           style="fill:none;stroke:#000000;stroke-width:0.5;stroke-miterlimit:4;stroke-dasharray:none;stroke-opacity:1"
           d="m 135.21025,22.403403 c -0.34872,-0.38011 -0.19086,-0.37914 0.18038,10e-4 0.15638,0.16018 0.24012,0.29123 0.18608,0.29123 -0.054,0 -0.21895,-0.13156 -0.36646,-0.29235 z"
           id="path3382" />
        <path
           style="fill:none;stroke:#000000;stroke-width:0.5;stroke-miterlimit:4;stroke-dasharray:none;stroke-opacity:1"
           d="m 135.22456,23.063693 c -0.15158,-0.1224 -0.40074,-0.41918 -0.55371,-0.6595 -0.2712,-0.42608 -0.27741,-0.45683 -0.24983,-1.23679 0.0247,-0.69798 0.0579,-0.84633 0.26066,-1.16483 0.27938,-0.43877 0.73588,-0.8002 1.12485,-0.89058 0.24927,-0.0579 0.2234,-0.0254 -0.20499,0.25798 -0.28666,0.1896 -0.60212,0.50113 -0.75966,0.75016 -0.24089,0.38084 -0.2694,0.49414 -0.2694,1.07091 0,0.76191 0.17303,1.17172 0.68088,1.61255 0.28449,0.24696 0.40297,0.28575 0.87129,0.28532 0.63928,-5.9e-4 0.97688,-0.20497 1.43699,-0.8699 0.25219,-0.36447 0.29585,-0.49976 0.29585,-0.91678 0,-0.78371 -0.44352,-1.55142 -1.10443,-1.91174 -0.30321,-0.1653 -0.36356,-0.22771 -0.2242,-0.23185 0.3327,-0.01 0.88978,0.46562 1.17921,1.00655 0.23383,0.43698 0.27195,0.59371 0.26801,1.10177 -0.004,0.5033 -0.0451,0.6629 -0.27396,1.06197 -0.43951,0.7663 -0.7458,0.95731 -1.53512,0.95731 -0.55656,0 -0.71244,-0.0368 -0.94244,-0.22255 z"
           id="path3372" />
        <path
           style="fill:none;stroke:#000000;stroke-width:0.5;stroke-miterlimit:4;stroke-dasharray:none;stroke-opacity:1"
           d="m 126.15993,24.241513 c 0.0308,-0.0971 0.0768,-0.15168 0.10205,-0.12138 0.0253,0.0303 5e-5,0.10971 -0.0561,0.17647 -0.0811,0.0965 -0.0905,0.0852 -0.046,-0.0551 z"
           id="path3360" />
        <path
           style="fill:none;stroke:#000000;stroke-width:0.5;stroke-miterlimit:4;stroke-dasharray:none;stroke-opacity:1"
           d="m 124.59413,24.466913 c -0.028,-0.0543 -0.0812,-0.30891 -0.11813,-0.56587 -0.037,-0.25695 -0.13218,-0.68861 -0.21156,-0.95924 -0.3999,-1.36351 -0.81951,-2.61173 -1.03329,-3.07385 -0.3436,-0.74274 -0.32478,-0.85434 0.1315,-0.77939 0.6853,0.11255 1.32586,0.66142 1.71465,1.46923 0.29866,0.6205 0.46534,1.56132 0.50084,2.82686 0.0329,1.17111 0.0227,1.14369 -0.12747,-0.34444 -0.16091,-1.59438 -0.49168,-2.53322 -1.12958,-3.20607 -0.28739,-0.30314 -1.03855,-0.71631 -1.14502,-0.62981 -0.0121,0.01 0.14247,0.38983 0.34355,0.84439 0.41314,0.93392 1.06506,3.22095 1.14024,4.00021 0.0493,0.51041 0.0335,0.61042 -0.0657,0.41798 z"
           id="path3358" />
        <path
           style="fill:none;stroke:#000000;stroke-width:0.5;stroke-miterlimit:4;stroke-dasharray:none;stroke-opacity:1"
           d="m 126.31124,24.485513 c 0.19996,-0.47709 0.48739,-1.06387 0.63873,-1.30394 0.15133,-0.24008 0.44827,-0.72928 0.65985,-1.08713 0.60015,-1.01504 1.79835,-2.45046 2.03988,-2.44375 0.14067,0.004 0.34777,0.20269 0.69333,0.6655 0.27102,0.36296 0.65906,0.83044 0.86232,1.03884 0.60005,0.61524 1.81325,2.05472 1.77269,2.10333 -0.0586,0.0702 -0.28263,-0.14757 -1.24037,-1.20535 -1.22136,-1.34892 -1.61424,-1.81378 -1.86034,-2.20116 l -0.2105,-0.33134 -0.60768,0.72817 c -0.33421,0.4005 -0.88177,1.1696 -1.21677,1.70911 -0.33501,0.5395 -0.67437,1.05803 -0.75413,1.15229 -0.0798,0.0943 -0.35472,0.59245 -0.61102,1.10712 -0.25631,0.51467 -0.4803,0.93576 -0.49777,0.93576 -0.0175,0 0.13182,-0.39035 0.33178,-0.86745 z"
           id="path3344" />
        <path
           style="fill:none;stroke:#000000;stroke-width:0.5;stroke-miterlimit:4;stroke-dasharray:none;stroke-opacity:1"
           d="m 131.25676,25.623593 c 0.43037,-0.86643 1.65962,-2.23855 1.74155,-1.94399 0.0175,0.0629 -0.0554,0.18279 -0.16198,0.26645 -0.10658,0.0837 -0.49367,0.52302 -0.86019,0.97634 -0.61171,0.75657 -0.87377,1.012 -0.71938,0.7012 z"
           id="path3340" />
        <path
           style="fill:none;stroke:#000000;stroke-width:0.5;stroke-miterlimit:4;stroke-dasharray:none;stroke-opacity:1"
           d="m 123.23716,25.830483 c -0.37217,-0.61241 -1.9206,-2.44579 -2.06566,-2.44579 -0.15888,0 -1.62793,-1.204 -1.62793,-1.33421 0,-0.31013 1.1108,-0.3676 1.83237,-0.0948 0.721,0.27257 1.79819,1.30499 2.20269,2.11112 0.44534,0.88755 0.39541,0.9692 -0.0931,0.15228 -0.22588,-0.37773 -0.54924,-0.8109 -0.71859,-0.9626 -1.19678,-1.07211 -1.97809,-1.4459 -2.68879,-1.28639 l -0.38339,0.0861 0.54644,0.39364 c 0.30055,0.21651 0.71363,0.49617 0.91796,0.62147 0.61222,0.37541 1.99146,2.12838 2.40193,3.05278 0.19753,0.44484 0.0357,0.29815 -0.32391,-0.29354 z"
           id="path3326" />
        <path
           style="fill:none;stroke:#000000;stroke-width:0.5;stroke-miterlimit:4;stroke-dasharray:none;stroke-opacity:1"
           d="m 123.02416,25.967983 c -0.16949,-0.2571 -0.64316,-0.88543 -1.05259,-1.39629 -0.79548,-0.99251 -0.75896,-1.01274 0.10013,-0.0555 0.56671,0.63147 1.43967,1.91921 1.30104,1.91921 -0.0222,0 -0.17909,-0.21036 -0.34858,-0.46746 z"
           id="path3324" />
        <path
           style="fill:none;stroke:#000000;stroke-width:0.5;stroke-miterlimit:4;stroke-dasharray:none;stroke-opacity:1"
           d="m 122.99283,26.533843 c -0.074,-0.0573 -0.0841,-0.096 -0.0254,-0.0969 0.0538,-7.9e-4 0.12065,0.0428 0.14856,0.0969 0.063,0.12218 0.0346,0.12218 -0.12318,0 z"
           id="path3320" />
        <path
           style="fill:none;stroke:#000000;stroke-width:0.5;stroke-miterlimit:4;stroke-dasharray:none;stroke-opacity:1"
           d="m 121.94573,27.842893 c 0.079,-0.0248 0.20839,-0.0248 0.28744,0 0.079,0.0247 0.0144,0.045 -0.14372,0.045 -0.15809,0 -0.22277,-0.0202 -0.14372,-0.045 z"
           id="path3294" />
        <path
           style="fill:none;stroke:#000000;stroke-width:0.5;stroke-miterlimit:4;stroke-dasharray:none;stroke-opacity:1"
           d="m 122.5822,28.004843 c -0.09,-0.073 -0.0567,-0.0821 0.12319,-0.0339 0.30196,0.0809 0.36752,0.13726 0.15741,0.13525 -0.0866,-7.9e-4 -0.21285,-0.0465 -0.2806,-0.1014 z"
           id="path3284" />
        <path
           style="fill:none;stroke:#000000;stroke-width:0.5;stroke-miterlimit:4;stroke-dasharray:none;stroke-opacity:1"
           d="m 132.76573,29.216213 c 0,-0.13425 0.71043,-0.9117 0.8331,-0.9117 0.0537,0 0.0822,0.0141 0.0634,0.0313 -0.0188,0.0172 -0.22824,0.24471 -0.46538,0.50552 -0.23713,0.26081 -0.43115,0.42949 -0.43115,0.37485 z"
           id="path3256" />
        <path
           style="fill:none;stroke:#000000;stroke-width:0.5;stroke-miterlimit:4;stroke-dasharray:none;stroke-opacity:1"
           d="m 118.27586,29.994533 c 0.0875,-0.18007 0.2121,-0.37935 0.27697,-0.44284 0.074,-0.0725 0.0587,0.007 -0.0411,0.21195 -0.0875,0.18007 -0.21209,0.37935 -0.27697,0.44285 -0.074,0.0724 -0.0587,-0.007 0.0411,-0.21196 z"
           id="path3246" />
        <path
           style="fill:none;stroke:#000000;stroke-width:0.5;stroke-miterlimit:4;stroke-dasharray:none;stroke-opacity:1"
           d="m 121.49885,30.384443 c -0.12114,-0.30895 -0.509,-0.95644 -0.86192,-1.43887 -0.60741,-0.83029 -0.64167,-0.90202 -0.64167,-1.3431 0,-0.37808 0.0441,-0.52112 0.23378,-0.75838 0.39718,-0.49677 1.17747,-0.63149 2.069,-0.35721 0.46826,0.14406 1.02329,0.4078 1.02329,0.48625 0,0.0204 -0.2125,-0.0527 -0.47222,-0.16253 -0.25972,-0.10982 -0.75169,-0.22293 -1.09325,-0.25137 -0.51072,-0.0425 -0.68837,-0.016 -1.0002,0.14928 -0.61289,0.32488 -0.80017,1.01866 -0.39688,1.47026 0.50112,0.56114 1.16432,1.6851 1.28302,2.17439 0.0709,0.29215 0.11726,0.5451 0.10308,0.5621 -0.0142,0.017 -0.12491,-0.22187 -0.24603,-0.53082 z"
           id="path3238" />
        <path
           style="fill:none;stroke:#000000;stroke-width:0.5;stroke-miterlimit:4;stroke-dasharray:none;stroke-opacity:1"
           d="m 130.98562,30.801573 c -0.0796,-0.20967 -0.32354,-0.70705 -0.5422,-1.10528 -0.41568,-0.75708 -0.4865,-1.05473 -0.11032,-0.46373 0.29723,0.46696 0.90221,1.82435 0.84414,1.89395 -0.0258,0.031 -0.11206,-0.11526 -0.19162,-0.32494 z"
           id="path3236" />
        <path
           style="fill:none;stroke:#000000;stroke-width:0.5;stroke-miterlimit:4;stroke-dasharray:none;stroke-opacity:1"
           d="m 117.65469,31.318533 c 0,-0.13175 0.32633,-0.83576 0.41933,-0.90463 0.0512,-0.038 -0.0102,0.14725 -0.13662,0.41157 -0.26707,0.55848 -0.28271,0.58576 -0.28271,0.49306 z"
           id="path3234" />
        <path
           style="fill:none;stroke:#000000;stroke-width:0.5;stroke-miterlimit:4;stroke-dasharray:none;stroke-opacity:1"
           d="m 117.49169,31.730183 c -8.2e-4,-0.0915 0.0357,-0.19378 0.0809,-0.22723 0.10394,-0.077 0.10394,0.0533 0,0.24603 -0.0686,0.12721 -0.0798,0.12461 -0.0809,-0.0188 z"
           id="path3202" />
        <path
           style="fill:none;stroke:#000000;stroke-width:0.5;stroke-miterlimit:4;stroke-dasharray:none;stroke-opacity:1"
           d="m 121.76423,31.976863 c -0.002,-0.0641 0.0352,-0.23774 0.0821,-0.38578 0.16632,-0.52421 0.10577,-1.04514 -0.24077,-2.07112 -0.3633,-1.07568 -0.40953,-1.46276 -0.21045,-1.76237 0.1183,-0.17805 0.12347,-0.16312 0.0759,0.21984 -0.0417,0.33624 0.005,0.57756 0.25933,1.32855 0.3554,1.05104 0.41801,1.95612 0.17238,2.49225 -0.0744,0.16238 -0.13673,0.24276 -0.13855,0.17863 z"
           id="path3198" />
        <path
           style="fill:none;stroke:#000000;stroke-width:0.5;stroke-miterlimit:4;stroke-dasharray:none;stroke-opacity:1"
           d="m 117.32619,32.197703 c 0,-0.078 0.0335,-0.16663 0.0745,-0.19696 0.041,-0.0303 0.0551,0.0335 0.0315,0.14181 -0.0502,0.22978 -0.10595,0.25883 -0.10595,0.0551 z"
           id="path3194" />
        <path
           style="fill:none;stroke:#000000;stroke-width:0.5;stroke-miterlimit:4;stroke-dasharray:none;stroke-opacity:1"
           d="m 121.02182,32.580643 c 0,-0.0839 0.0617,-0.29423 0.13709,-0.46745 0.0802,-0.18432 0.13981,-0.55985 0.14367,-0.90541 0.006,-0.51415 -0.0289,-0.65338 -0.26832,-1.07716 -0.15121,-0.26768 -0.49878,-0.78852 -0.77239,-1.15743 -0.48094,-0.64845 -0.58466,-0.94166 -0.22687,-0.64136 0.29648,0.24884 1.12357,1.45286 1.31723,1.91751 0.15658,0.3757 0.17731,0.5437 0.13743,1.11367 -0.0258,0.36918 -0.0892,0.76585 -0.14087,0.8815 -0.0516,0.11564 -0.0703,0.2385 -0.0415,0.27302 0.11205,0.13427 0.50371,-0.25032 0.67953,-0.66725 0.2771,-0.65711 0.24766,-1.33532 -0.10265,-2.3647 -0.15658,-0.46007 -0.2853,-0.93613 -0.28606,-1.05792 -0.001,-0.19256 0.0388,-0.21993 0.30659,-0.21001 0.16938,0.006 0.23405,0.031 0.14372,0.055 -0.0903,0.0239 -0.20893,0.061 -0.26353,0.0824 -0.0666,0.026 0.0213,0.34381 0.2669,0.96514 0.41074,1.03902 0.46279,1.5621 0.2351,2.36283 -0.16431,0.57787 -0.61241,1.0502 -0.99631,1.0502 -0.18795,0 -0.26873,-0.0458 -0.26873,-0.1525 z"
           id="path3192" />
        <path
           style="fill:none;stroke:#000000;stroke-width:0.5;stroke-miterlimit:4;stroke-dasharray:none;stroke-opacity:1"
           d="m 131.62245,32.774163 c 0.004,-0.11465 0.0234,-0.13797 0.0496,-0.0595 0.0237,0.071 0.0208,0.15592 -0.006,0.18862 -0.0273,0.0327 -0.0467,-0.0254 -0.0431,-0.12917 z"
           id="path3190" />
        <path
           style="fill:none;stroke:#000000;stroke-width:0.5;stroke-miterlimit:4;stroke-dasharray:none;stroke-opacity:1"
           d="m 135.61732,32.899533 c 0.19323,-0.30134 0.64161,-0.75575 0.5891,-0.59704 -0.0179,0.054 -0.19763,0.27268 -0.39944,0.48588 -0.28152,0.29738 -0.32568,0.32326 -0.18966,0.11116 z"
           id="path3188" />
        <path
           style="fill:none;stroke:#000000;stroke-width:0.5;stroke-miterlimit:4;stroke-dasharray:none;stroke-opacity:1"
           d="m 134.65461,33.416223 c 0,-0.0573 0.0369,-0.0769 0.0821,-0.0434 0.0452,0.0335 0.0821,0.0804 0.0821,0.10422 0,0.0239 -0.037,0.0434 -0.0821,0.0434 -0.0452,0 -0.0821,-0.0469 -0.0821,-0.10422 z"
           id="path3186" />
        <path
           style="fill:none;stroke:#000000;stroke-width:0.5;stroke-miterlimit:4;stroke-dasharray:none;stroke-opacity:1"
           d="m 131.7867,33.463023 c 0.004,-0.11464 0.0234,-0.13796 0.0496,-0.0595 0.0237,0.071 0.0208,0.15592 -0.006,0.18862 -0.0273,0.0327 -0.0467,-0.0254 -0.0432,-0.12916 z"
           id="path3184" />
        <path
           style="fill:none;stroke:#000000;stroke-width:0.5;stroke-miterlimit:4;stroke-dasharray:none;stroke-opacity:1"
           d="m 119.72835,32.569553 c -0.0565,-0.0273 -0.14885,-0.0273 -0.20531,0 -0.0565,0.0273 -0.0103,0.0496 0.10265,0.0496 0.11293,0 0.15912,-0.0223 0.10266,-0.0496 z"
           id="path3180" />
        <path
           style="fill:none;stroke:#000000;stroke-width:0.5;stroke-miterlimit:4;stroke-dasharray:none;stroke-opacity:1"
           d="m 120.20057,32.994423 c 0,-0.0187 -0.0832,-0.11832 -0.18478,-0.22143 l -0.18478,-0.18747 0.15644,0.22143 c 0.14703,0.20808 0.21312,0.26622 0.21312,0.18747 z"
           id="path3178" />
        <path
           style="fill:none;stroke:#000000;stroke-width:0.5;stroke-miterlimit:4;stroke-dasharray:none;stroke-opacity:1"
           d="m 118.63768,33.668043 c 0,-0.0541 -0.0358,-0.032 -0.0796,0.0492 -0.0438,0.0812 -0.0796,0.1919 -0.0796,0.24603 0,0.0541 0.0358,0.032 0.0796,-0.0492 0.0438,-0.0812 0.0796,-0.1919 0.0796,-0.24603 z"
           id="path3176" />
        <path
           style="fill:none;stroke:#000000;stroke-width:0.5;stroke-miterlimit:4;stroke-dasharray:none;stroke-opacity:1"
           d="m 118.48116,34.307713 c -0.006,-0.19136 -0.0247,-0.21386 -0.0841,-0.10126 -0.12642,0.23953 -0.16854,0.065 -0.0786,-0.32552 0.10224,-0.44374 0.69698,-1.34452 1.00591,-1.52354 0.4384,-0.25405 1.20469,0.35081 1.20469,0.9509 0,0.31617 -0.28395,0.26828 -0.49275,-0.0831 -0.34791,-0.58548 -0.92752,-0.22189 -1.35645,0.85089 -0.15772,0.39448 -0.19233,0.43482 -0.19871,0.23163 z"
           id="path3174" />
        <path
           style="fill:none;stroke:#000000;stroke-width:0.5;stroke-miterlimit:4;stroke-dasharray:none;stroke-opacity:1"
           d="m 141.24808,34.730963 c -0.10001,-0.12452 -0.15194,-0.2264 -0.11538,-0.2264 0.0801,0 0.37888,0.38264 0.33095,0.42383 -0.0186,0.0159 -0.11554,-0.0729 -0.21557,-0.19743 z"
           id="path3170" />
        <path
           style="fill:none;stroke:#000000;stroke-width:0.5;stroke-miterlimit:4;stroke-dasharray:none;stroke-opacity:1"
           d="m 140.08939,35.126173 c 0.0193,-0.20223 0.10332,-0.32343 0.30959,-0.44679 0.15566,-0.0931 0.29957,-0.14947 0.31978,-0.12525 0.0202,0.0242 -0.11909,0.22528 -0.30958,0.4468 l -0.34633,0.40275 z"
           id="path3154" />
        <path
           style="fill:none;stroke:#000000;stroke-width:0.5;stroke-miterlimit:4;stroke-dasharray:none;stroke-opacity:1"
           d="m 139.91092,36.128653 c -0.21737,-0.27726 -0.16036,-0.47104 0.0616,-0.20948 0.0789,0.0929 0.2173,0.23192 0.30764,0.3089 0.16346,0.13929 0.16343,0.13998 -0.006,0.14309 -0.0937,0.002 -0.25713,-0.10741 -0.36304,-0.24251 z"
           id="path3126" />
        <path
           style="fill:none;stroke:#000000;stroke-width:0.5;stroke-miterlimit:4;stroke-dasharray:none;stroke-opacity:1"
           d="m 140.6882,36.369293 c -0.0241,-0.0467 0.065,-0.15241 0.19798,-0.23482 0.133,-0.0824 0.31899,-0.26741 0.41332,-0.41111 0.0943,-0.1437 0.1715,-0.20412 0.1715,-0.13427 0,0.36397 -0.65881,1.0206 -0.7828,0.7802 z"
           id="path3120" />
        <path
           style="fill:none;stroke:#000000;stroke-width:0.5;stroke-miterlimit:4;stroke-dasharray:none;stroke-opacity:1"
           d="m 139.91662,36.663153 c -0.19137,-0.16613 -0.40216,-0.45912 -0.46975,-0.65299 -0.25252,-0.72422 0.0555,-1.63731 0.67446,-1.99947 0.488,-0.28552 0.52921,-0.23883 0.0941,0.10657 -0.65849,0.52266 -0.88409,1.24449 -0.58107,1.85919 0.15446,0.31332 0.73007,0.79121 0.95302,0.79121 0.47201,0 1.21217,-0.832 1.21217,-1.3626 0,-0.35023 -0.30007,-0.92291 -0.62216,-1.18737 -0.3702,-0.30397 -0.29723,-0.39268 0.0882,-0.10722 0.74882,0.55457 0.87424,1.642 0.26862,2.329 -0.5612,0.63661 -1.06207,0.70587 -1.61756,0.22368 z"
           id="path3108" />
        <path
           style="fill:none;stroke:#000000;stroke-width:0.5;stroke-miterlimit:4;stroke-dasharray:none;stroke-opacity:1"
           d="m 128.16668,35.651173 c 0,-0.0187 -0.0831,-0.11831 -0.18478,-0.22142 l -0.18478,-0.18747 0.15645,0.22142 c 0.14702,0.20809 0.21311,0.26623 0.21311,0.18747 z"
           id="path3094" />
        <path
           style="fill:none;stroke:#000000;stroke-width:0.5;stroke-miterlimit:4;stroke-dasharray:none;stroke-opacity:1"
           d="m 128.71604,37.776363 c -0.0206,-0.0947 -0.0375,-0.0172 -0.0375,0.17222 0,0.18944 0.0169,0.26694 0.0375,0.17222 0.0207,-0.0947 0.0207,-0.24972 0,-0.34444 z"
           id="path3092" />
        <path
           style="fill:none;stroke:#000000;stroke-width:0.5;stroke-miterlimit:4;stroke-dasharray:none;stroke-opacity:1"
           d="m 128.63344,38.520603 c -0.0262,-0.0785 -0.0457,-0.0552 -0.0496,0.0595 -0.004,0.10374 0.0159,0.16186 0.0431,0.12916 0.0273,-0.0327 0.0302,-0.11758 0.006,-0.18862 z"
           id="path3090" />
        <path
           style="fill:none;stroke:#000000;stroke-width:0.5;stroke-miterlimit:4;stroke-dasharray:none;stroke-opacity:1"
           d="m 128.46784,38.867083 c -0.0301,-0.0361 -0.0547,-0.40206 -0.0547,-0.81328 0,-1.0333 -0.2941,-1.95464 -0.79186,-2.48074 -0.26066,-0.27549 -0.61119,-0.30686 -0.97082,-0.0869 -0.28635,0.17518 -0.34,0.18173 -0.4462,0.0545 -0.1062,-0.12725 -0.10319,-0.16784 0.025,-0.33756 0.36597,-0.4846 1.06286,-0.63509 1.57977,-0.34115 0.32164,0.18289 0.6955,0.78347 0.84937,1.36443 0.0573,0.21651 0.13648,0.49537 0.17588,0.6197 0.10363,0.32708 0.0879,1.54234 -0.0237,1.83595 -0.0926,0.24368 -0.23129,0.31854 -0.34269,0.18505 z"
           id="path3088" />
        <path
           style="fill:none;stroke:#000000;stroke-width:0.5;stroke-miterlimit:4;stroke-dasharray:none;stroke-opacity:1"
           d="m 137.61759,40.351643 c 0.004,-0.11465 0.0234,-0.13797 0.0496,-0.0595 0.0237,0.071 0.0208,0.15592 -0.006,0.18862 -0.0273,0.0327 -0.0467,-0.0254 -0.0431,-0.12917 z"
           id="path3076" />
        <path
           style="fill:none;stroke:#000000;stroke-width:0.5;stroke-miterlimit:4;stroke-dasharray:none;stroke-opacity:1"
           d="m 145.89036,40.538483 c 0.0593,-0.0284 0.13012,-0.0249 0.15741,0.008 0.0273,0.0327 -0.0212,0.056 -0.10779,0.0517 -0.0957,-0.005 -0.11513,-0.028 -0.0496,-0.0595 z"
           id="path3072" />
        <path
           style="fill:none;stroke:#000000;stroke-width:0.5;stroke-miterlimit:4;stroke-dasharray:none;stroke-opacity:1"
           d="m 146.23426,40.605683 c -0.0677,-0.0525 -0.0862,-0.0954 -0.0411,-0.0954 0.0452,0 0.13756,0.0429 0.20531,0.0954 0.0677,0.0525 0.0862,0.0954 0.0411,0.0954 -0.0452,0 -0.13756,-0.0429 -0.20531,-0.0954 z"
           id="path3070" />
        <path
           style="fill:none;stroke:#000000;stroke-width:0.5;stroke-miterlimit:4;stroke-dasharray:none;stroke-opacity:1"
           d="m 146.06235,41.639003 c 0.28578,-0.4982 0.4149,-0.67653 0.455,-0.62848 0.0211,0.0253 -0.1107,0.24351 -0.29297,0.48487 -0.18226,0.24136 -0.25517,0.30599 -0.16203,0.14361 z"
           id="path3056" />
        <path
           style="fill:none;stroke:#000000;stroke-width:0.5;stroke-miterlimit:4;stroke-dasharray:none;stroke-opacity:1"
           d="m 130.88333,42.024463 c 0.004,-0.11464 0.0234,-0.13796 0.0496,-0.0595 0.0237,0.071 0.0208,0.15592 -0.006,0.18862 -0.0273,0.0327 -0.0467,-0.0254 -0.0431,-0.12916 z"
           id="path3054" />
        <path
           style="fill:none;stroke:#000000;stroke-width:0.5;stroke-miterlimit:4;stroke-dasharray:none;stroke-opacity:1"
           d="m 140.48549,42.689053 c 0,-0.044 0.19403,-0.18243 0.43116,-0.3076 0.23714,-0.12517 0.70833,-0.38277 1.0471,-0.57245 1.76992,-0.99099 2.57551,-1.30723 3.28501,-1.28959 0.34747,0.009 0.33519,0.017 -0.20532,0.1406 -0.89247,0.20399 -1.33143,0.39448 -2.71179,1.17681 -1.01194,0.57353 -1.84616,0.95862 -1.84616,0.85223 z"
           id="path3046" />
        <path
           style="fill:none;stroke:#000000;stroke-width:0.5;stroke-miterlimit:4;stroke-dasharray:none;stroke-opacity:1"
           d="m 145.01345,42.675553 c 0.23725,-0.32299 0.48282,-0.61091 0.54572,-0.63983 0.0629,-0.0289 -0.0966,0.23535 -0.35444,0.58725 -0.25783,0.35191 -0.5034,0.63983 -0.54572,0.63983 -0.0423,0 0.11718,-0.26426 0.35444,-0.58725 z"
           id="path3044" />
        <path
           style="fill:none;stroke:#000000;stroke-width:0.5;stroke-miterlimit:4;stroke-dasharray:none;stroke-opacity:1"
           d="m 132.80184,42.883063 c 0.22312,-0.27578 0.42394,-0.47952 0.44628,-0.45276 0.0515,0.0618 -0.46965,0.70318 -0.68771,0.84635 -0.0903,0.0593 0.0183,-0.1178 0.24143,-0.39359 z"
           id="path3042" />
        <path
           style="fill:none;stroke:#000000;stroke-width:0.5;stroke-miterlimit:4;stroke-dasharray:none;stroke-opacity:1"
           d="m 118.57382,43.031923 c -0.0538,-0.17839 -0.0954,-0.43192 -0.0925,-0.56339 0.003,-0.13449 0.0576,-0.007 0.12465,0.29228 0.13475,0.6005 0.11569,0.76111 -0.0322,0.27111 z"
           id="path3040" />
        <path
           style="fill:none;stroke:#000000;stroke-width:0.5;stroke-miterlimit:4;stroke-dasharray:none;stroke-opacity:1"
           d="m 140.55895,43.627523 c 0.0482,-0.0578 0.30092,-0.13783 0.56148,-0.17779 0.26057,-0.04 0.78788,-0.14183 1.17182,-0.22637 0.38393,-0.0845 0.84589,-0.14921 1.02656,-0.14371 l 0.32851,0.01 -0.32851,0.082 c -1.78488,0.44544 -2.90564,0.63057 -2.75986,0.45588 z"
           id="path3034" />
        <path
           style="fill:none;stroke:#000000;stroke-width:0.5;stroke-miterlimit:4;stroke-dasharray:none;stroke-opacity:1"
           d="m 118.76555,39.345403 c -0.0253,-0.0303 -0.0915,-6e-5 -0.14726,0.0672 -0.0805,0.0972 -0.0711,0.1085 0.046,0.0551 0.081,-0.037 0.12657,-0.092 0.10129,-0.12228 z"
           id="path3030" />
        <path
           style="fill:none;stroke:#000000;stroke-width:0.5;stroke-miterlimit:4;stroke-dasharray:none;stroke-opacity:1"
           d="m 119.80138,39.421503 c -0.10664,-0.10645 -0.23598,-0.19331 -0.28744,-0.19303 -0.0515,3e-4 0.0173,0.0856 0.15282,0.18963 0.32005,0.24567 0.37878,0.24715 0.13462,0.003 z"
           id="path3028" />
        <path
           style="fill:none;stroke:#000000;stroke-width:0.5;stroke-miterlimit:4;stroke-dasharray:none;stroke-opacity:1"
           d="m 120.28269,39.978093 c 0,-0.0204 -0.0647,-0.0979 -0.14371,-0.17222 -0.13026,-0.12241 -0.13316,-0.11893 -0.031,0.0372 0.10728,0.16393 0.17472,0.21606 0.17472,0.13506 z"
           id="path3026" />
        <path
           style="fill:none;stroke:#000000;stroke-width:0.5;stroke-miterlimit:4;stroke-dasharray:none;stroke-opacity:1"
           d="m 120.39316,40.257033 c -0.0268,-0.0835 -0.0662,-0.13076 -0.0878,-0.10496 -0.0215,0.0258 -0.0148,0.0941 0.015,0.15186 0.081,0.15701 0.12831,0.12651 0.0728,-0.0469 z"
           id="path3024" />
        <path
           style="fill:none;stroke:#000000;stroke-width:0.5;stroke-miterlimit:4;stroke-dasharray:none;stroke-opacity:1"
           d="m 120.53341,40.748383 c -0.0398,-0.15966 -0.0755,-0.21641 -0.0794,-0.12611 -0.008,0.18327 0.0798,0.50265 0.12356,0.45019 0.0155,-0.0186 -0.004,-0.16442 -0.0442,-0.32408 z"
           id="path3022" />
        <path
           style="fill:none;stroke:#000000;stroke-width:0.5;stroke-miterlimit:4;stroke-dasharray:none;stroke-opacity:1"
           d="m 120.31093,41.690493 c -0.0381,-0.0414 -0.17093,-0.10396 -0.29514,-0.13904 -0.32588,-0.092 -0.2951,0.16315 0.0411,0.34045 0.22266,0.11744 0.27159,0.11865 0.29514,0.007 0.0155,-0.0734 -0.003,-0.16733 -0.0411,-0.20872 z"
           id="path3020" />
        <path
           style="fill:none;stroke:#000000;stroke-width:0.5;stroke-miterlimit:4;stroke-dasharray:none;stroke-opacity:1"
           d="m 119.60515,42.024463 c -0.0783,-0.0938 -0.23516,0.0581 -0.17684,0.1712 0.0347,0.0672 0.0806,0.0655 0.13958,-0.005 0.0484,-0.0579 0.0651,-0.13266 0.0373,-0.16604 z"
           id="path3018" />
        <path
           style="fill:none;stroke:#000000;stroke-width:0.5;stroke-miterlimit:4;stroke-dasharray:none;stroke-opacity:1"
           d="m 120.233,43.321153 0.15563,-0.20596 -0.0484,0.2356 c -0.0329,0.16042 -0.0216,0.20352 0.0355,0.13505 0.12727,-0.15251 0.23289,-0.80401 0.21963,-1.35476 -0.0101,-0.42186 -0.0164,-0.43941 -0.0441,-0.12301 -0.0354,0.40543 -0.2376,0.50345 -0.43892,0.21277 -0.0971,-0.14024 -0.115,-0.13432 -0.1743,0.0577 -0.0363,0.11771 -0.17572,0.26362 -0.30975,0.32424 -0.20557,0.093 -0.23602,0.14937 -0.19472,0.3605 0.0269,0.13765 0.0866,0.29456 0.13254,0.34869 0.0562,0.0661 0.0646,0.058 0.0256,-0.0246 -0.0319,-0.0677 -0.0231,-0.12302 0.0194,-0.12302 0.0426,0 0.0951,0.0812 0.11677,0.18042 0.0529,0.24222 0.31327,0.23001 0.50496,-0.0237 z"
           id="path3016" />
        <path
           style="fill:none;stroke:#000000;stroke-width:0.5;stroke-miterlimit:4;stroke-dasharray:none;stroke-opacity:1"
           d="m 119.19377,43.876853 c -0.27233,-0.34208 -0.38941,-0.71393 -0.38902,-1.23552 8.2e-4,-0.80272 0.58304,-1.50397 1.16333,-1.40063 l 0.30133,0.0537 -0.0835,-0.36893 c -0.1519,-0.67145 -0.65334,-1.40225 -0.96218,-1.40225 -0.049,0 -0.22389,0.2432 -0.38859,0.54045 -0.2634,0.47537 -0.30591,0.63829 -0.35315,1.35315 -0.0501,0.75788 -0.058,0.78505 -0.11808,0.40268 -0.0737,-0.46961 -0.002,-1.20778 0.16425,-1.69632 0.1277,-0.3747 0.0946,-0.49164 -0.0877,-0.31027 -0.1373,0.13655 -0.29302,0.0618 -0.29302,-0.14071 0,-0.074 0.13776,-0.27072 0.30615,-0.43704 0.26245,-0.25924 0.37289,-0.3024 0.7738,-0.3024 0.40001,0 0.51907,0.0463 0.82308,0.31993 0.22374,0.20141 0.4381,0.52042 0.57862,0.8611 0.20593,0.49927 0.22341,0.63555 0.22585,1.76052 0.002,1.06955 -0.02,1.27356 -0.18122,1.66049 -0.10111,0.24262 -0.22711,0.46102 -0.27999,0.48533 -0.16344,0.0752 -0.9798,-0.4467 -1.09209,-0.69812 -0.0585,-0.1309 -0.0915,-0.39009 -0.0734,-0.57597 0.0391,-0.40107 -0.13275,-0.67959 -0.20901,-0.33879 -0.12426,0.55525 -0.0549,0.98843 0.21072,1.31689 0.14372,0.17767 0.24265,0.34539 0.21986,0.3727 -0.0228,0.0273 -0.13802,-0.0717 -0.25607,-0.21995 z"
           id="path3014" />
        <path
           style="fill:none;stroke:#000000;stroke-width:0.5;stroke-miterlimit:4;stroke-dasharray:none;stroke-opacity:1"
           d="m 123.65631,44.014673 c -0.008,-0.34322 0.40025,-1.28488 0.7987,-1.84269 0.32696,-0.45774 0.91945,-0.8389 0.91945,-0.59151 0,0.049 -0.16279,0.20338 -0.36175,0.3431 -0.47068,0.33054 -1.02134,1.26868 -1.30598,2.22494 -0.0242,0.0812 -0.0468,0.021 -0.0504,-0.13384 z"
           id="path3012" />
        <path
           style="fill:none;stroke:#000000;stroke-width:0.5;stroke-miterlimit:4;stroke-dasharray:none;stroke-opacity:1"
           d="m 112.64988,45.005693 c -0.003,-0.0428 0.07,-0.25346 0.16143,-0.46824 0.21204,-0.49808 0.85317,-1.0721 1.20109,-1.07538 0.30172,-0.003 1.57989,-0.57357 2.28038,-1.01824 0.34229,-0.21729 0.55749,-0.43999 0.72806,-0.75345 l 0.24213,-0.445 -0.051,0.33506 c -0.0281,0.18429 -0.0949,0.39838 -0.14845,0.47576 -0.18293,0.26412 -0.7632,0.6849 -1.29771,0.94103 -0.2936,0.14069 -0.69617,0.35066 -0.8946,0.46661 -0.23044,0.13465 -0.45297,0.19356 -0.61594,0.16305 -0.14033,-0.0263 -0.37379,0.0181 -0.5188,0.0987 -0.25134,0.1396 -0.77503,0.76099 -0.98393,1.1675 -0.0538,0.10469 -0.1,0.15538 -0.10266,0.11263 z"
           id="path3010" />
        <path
           style="fill:none;stroke:#000000;stroke-width:0.5;stroke-miterlimit:4;stroke-dasharray:none;stroke-opacity:1"
           d="m 123.65631,45.272043 c 0.004,-0.11465 0.0234,-0.13797 0.0496,-0.0595 0.0237,0.071 0.0208,0.15592 -0.006,0.18862 -0.0273,0.0327 -0.0467,-0.0254 -0.0431,-0.12917 z"
           id="path3008" />
        <path
           style="fill:none;stroke:#000000;stroke-width:0.5;stroke-miterlimit:4;stroke-dasharray:none;stroke-opacity:1"
           d="m 112.54085,45.321543 c 0.029,-0.13308 0.0663,-0.17769 0.0868,-0.10398 0.0198,0.071 -0.003,0.17588 -0.0509,0.23306 -0.0609,0.073 -0.0716,0.0346 -0.0359,-0.12908 z"
           id="path3006" />
        <path
           style="fill:none;stroke:#000000;stroke-width:0.5;stroke-miterlimit:4;stroke-dasharray:none;stroke-opacity:1"
           d="m 140.15699,45.572993 c 0,-0.11029 0.10356,-0.14366 0.43116,-0.13892 0.44674,0.007 0.38,0.0969 -0.16425,0.22248 -0.20373,0.047 -0.26691,0.0272 -0.26691,-0.0836 z"
           id="path3004" />
        <path
           style="fill:none;stroke:#000000;stroke-width:0.5;stroke-miterlimit:4;stroke-dasharray:none;stroke-opacity:1"
           d="m 129.94514,45.739923 c -0.24003,-0.31781 -0.16064,-1.45901 0.16333,-2.34818 0.23369,-0.64134 0.77647,-2.77628 1.10728,-4.35523 0.33416,-1.59496 0.34152,-1.66638 0.35014,-3.40058 0.008,-1.61299 -0.008,-1.83299 -0.18373,-2.46027 -0.62977,-2.25323 -1.15478,-3.47733 -1.8888,-4.4039 l -0.29235,-0.36904 h -1.40116 c -1.17926,0 -1.46976,0.0301 -1.83442,0.18977 -0.53016,0.23221 -1.07207,0.60547 -1.28133,0.88255 -0.22727,0.30093 -0.46723,0.25692 -0.72708,-0.13333 -0.35829,-0.53808 -0.93517,-0.97055 -1.20756,-0.90526 -0.13686,0.0328 -0.2911,-0.001 -0.38299,-0.0847 -0.13911,-0.12624 -0.11217,-0.1399 0.28141,-0.14273 0.51945,-0.004 0.80891,0.15989 1.34417,0.75985 0.38858,0.43555 0.40261,0.44226 0.56247,0.26891 0.22315,-0.242 0.12842,-0.32386 -0.10205,-0.0882 -0.16033,0.16395 -0.16914,0.16528 -0.0688,0.0104 0.14101,-0.21773 0.46936,-0.4484 0.37338,-0.26231 -0.0404,0.0783 -0.0222,0.10492 0.0517,0.0754 0.0627,-0.0251 0.11409,-0.0936 0.11409,-0.15218 0,-0.0586 0.0336,-0.14352 0.0748,-0.18863 0.0441,-0.0484 0.0479,-0.0264 0.009,0.0538 -0.0452,0.0934 -0.0301,0.12029 0.0484,0.0861 0.0628,-0.0273 0.10393,-0.10278 0.0915,-0.16769 -0.0125,-0.0651 0.0187,-0.0875 0.0694,-0.0499 0.0506,0.0375 0.17161,0.0241 0.26894,-0.0296 0.53135,-0.29358 0.71241,-0.3191 2.2638,-0.3191 h 1.62745 l 0.22914,0.27063 c 0.3871,0.45719 1.141,1.90998 1.43708,2.76931 0.15462,0.44879 0.29389,0.77012 0.30949,0.71408 0.0156,-0.056 -0.011,-0.19001 -0.0591,-0.2977 -0.0481,-0.1077 -0.086,-0.25408 -0.0842,-0.3253 0.004,-0.17544 0.2068,0.29469 0.27608,0.64145 0.0407,0.20385 0.0293,0.25928 -0.0426,0.20604 -0.0713,-0.0528 -0.0821,-0.008 -0.0395,0.16397 0.55767,2.2431 0.59468,4.17609 0.12261,6.40358 -0.10338,0.48779 -0.14146,0.89183 -0.10782,1.14397 0.0322,0.24131 0.0178,0.41513 -0.0377,0.45627 -0.0606,0.0449 -0.0769,-0.0388 -0.0502,-0.25827 0.0228,-0.18775 -0.0299,-0.0757 -0.12518,0.26574 -0.0906,0.32476 -0.14476,0.70118 -0.12039,0.83649 0.0267,0.14847 0.0171,0.1975 -0.0243,0.12363 -0.0445,-0.0794 -0.13354,0.12778 -0.25361,0.59047 -0.10174,0.39207 -0.29011,1.045 -0.41859,1.45095 -0.37696,1.19103 -0.46444,1.72043 -0.33291,2.01493 0.0713,0.15963 0.1814,0.24852 0.30783,0.24852 0.26573,0 0.53216,-0.18145 0.46308,-0.31538 -0.0344,-0.0667 -0.0183,-0.0807 0.0417,-0.0363 0.13544,0.10031 0.78169,-0.68328 0.7013,-0.85033 -0.0335,-0.0696 -0.0297,-0.0926 0.008,-0.051 0.0382,0.0416 0.19191,-0.0668 0.34168,-0.24073 0.26993,-0.31351 0.36715,-0.5515 0.16964,-0.41531 -0.0596,0.0411 -0.074,0.0333 -0.0342,-0.0188 0.0376,-0.0493 0.0931,-0.0912 0.12319,-0.0931 0.22191,-0.0141 1.32769,-1.14025 1.32769,-1.35211 0,-0.0456 -0.0365,-0.0559 -0.0812,-0.0229 -0.0474,0.0351 -0.0598,-0.007 -0.0296,-0.10085 0.0348,-0.10861 0.0702,-0.12476 0.10897,-0.0497 0.0722,0.13993 0.16251,0.0125 0.41267,-0.58214 0.53486,-1.27135 0.72685,-2.79516 0.58016,-4.60459 -0.0516,-0.63646 -0.13662,-1.46719 -0.18894,-1.84607 -0.0781,-0.56517 -0.10668,-0.6447 -0.15938,-0.44285 -0.0457,0.17506 -0.0518,0.13926 -0.021,-0.12415 0.0414,-0.35521 -0.0362,-0.77007 -0.38643,-2.06589 -0.0842,-0.31144 -0.15023,-0.62143 -0.14676,-0.68888 0.009,-0.17472 0.48588,1.02432 0.48619,1.22238 0,0.0902 0.0676,0.35594 0.14995,0.59046 0.0823,0.23453 0.19349,0.7364 0.24704,1.11529 0.0536,0.37888 0.134,0.95165 0.17881,1.27281 0.0448,0.32117 0.0809,1.22901 0.0802,2.01743 -0.002,2.38252 -0.41679,3.82733 -1.44243,5.02549 -0.30117,0.35182 -0.90334,1.07318 -1.33817,1.60303 -0.43482,0.52985 -0.90145,1.0499 -1.03696,1.15568 -0.31487,0.24579 -0.79239,0.2525 -0.97277,0.0137 z"
           id="path3002" />
        <path
           style="fill:none;stroke:#000000;stroke-width:0.5;stroke-miterlimit:4;stroke-dasharray:none;stroke-opacity:1"
           d="m 126.35996,41.754573 c 0,-0.0176 -0.10163,-0.13941 -0.22584,-0.27063 l -0.22585,-0.23857 0.1991,0.27063 c 0.18608,0.25294 0.25259,0.31576 0.25259,0.23857 z"
           id="path3000" />
        <path
           style="fill:none;stroke:#000000;stroke-width:0.5;stroke-miterlimit:4;stroke-dasharray:none;stroke-opacity:1"
           d="m 126.66429,42.942963 c -0.0196,-0.12179 -0.0356,-0.0221 -0.0356,0.22142 0,0.24357 0.016,0.34321 0.0356,0.22143 0.0196,-0.12179 0.0196,-0.32107 0,-0.44285 z"
           id="path2998" />
        <path
           style="fill:none;stroke:#000000;stroke-width:0.5;stroke-miterlimit:4;stroke-dasharray:none;stroke-opacity:1"
           d="m 124.42029,43.897353 c 0.0281,-0.0876 0.0143,-0.12708 -0.0323,-0.0926 -0.0446,0.0331 -0.0812,0.1018 -0.0812,0.15273 0,0.14156 0.0589,0.11037 0.11346,-0.0601 z"
           id="path2996" />
        <path
           style="fill:none;stroke:#000000;stroke-width:0.5;stroke-miterlimit:4;stroke-dasharray:none;stroke-opacity:1"
           d="m 124.86902,44.005993 c 0.0181,-0.11219 -0.0114,-0.15951 -0.0821,-0.13131 -0.0608,0.0242 -0.12327,0.12302 -0.13887,0.21949 -0.0181,0.11219 0.0114,0.15951 0.0821,0.13131 0.0608,-0.0242 0.12327,-0.12302 0.13888,-0.21949 z"
           id="path2994" />
        <path
           style="fill:none;stroke:#000000;stroke-width:0.5;stroke-miterlimit:4;stroke-dasharray:none;stroke-opacity:1"
           d="m 126.12575,44.139813 c 0.0434,-0.0323 0.0215,-0.1138 -0.0493,-0.18427 -0.0908,-0.0903 -0.12708,-0.0937 -0.12708,-0.012 0,0.0808 -0.0336,0.0772 -0.11464,-0.0126 -0.0976,-0.10807 -0.0946,-0.13682 0.0205,-0.19379 0.11133,-0.0551 0.10547,-0.0681 -0.0332,-0.0738 -0.0926,-0.004 -0.20783,-0.0542 -0.25608,-0.11204 -0.0483,-0.0578 -0.23119,-0.0894 -0.40652,-0.0702 l -0.3188,0.035 0.24638,0.077 c 0.49688,0.15524 0.63162,0.27002 0.76629,0.65284 0.11553,0.32837 0.14162,0.35521 0.1659,0.1707 0.0159,-0.12041 0.0638,-0.24498 0.10654,-0.27682 z"
           id="path2992" />
        <path
           style="fill:none;stroke:#000000;stroke-width:0.5;stroke-miterlimit:4;stroke-dasharray:none;stroke-opacity:1"
           d="m 126.51839,44.197713 c 0,-0.0541 -0.0528,0.0123 -0.11737,0.14761 -0.0645,0.13532 -0.11736,0.29031 -0.11736,0.34444 0,0.0541 0.0528,-0.0123 0.11736,-0.14762 0.0645,-0.13531 0.11737,-0.29031 0.11737,-0.34443 z"
           id="path2990" />
        <path
           style="fill:none;stroke:#000000;stroke-width:0.5;stroke-miterlimit:4;stroke-dasharray:none;stroke-opacity:1"
           d="m 125.89855,45.176703 c 0.028,-0.0876 0.0143,-0.12708 -0.0323,-0.0926 -0.0446,0.0331 -0.0812,0.1018 -0.0812,0.15273 0,0.14156 0.0589,0.11037 0.11347,-0.0601 z"
           id="path2988" />
        <path
           style="fill:none;stroke:#000000;stroke-width:0.5;stroke-miterlimit:4;stroke-dasharray:none;stroke-opacity:1"
           d="m 125.51134,45.165403 c -0.0301,-0.0361 -0.0548,-0.11136 -0.0548,-0.16729 0,-0.0617 0.0383,-0.0559 0.0972,0.0148 0.0535,0.0641 0.0781,0.13933 0.0547,0.1673 -0.0233,0.028 -0.0671,0.0213 -0.0972,-0.0148 z"
           id="path2986" />
        <path
           style="fill:none;stroke:#000000;stroke-width:0.5;stroke-miterlimit:4;stroke-dasharray:none;stroke-opacity:1"
           d="m 125.87343,45.553833 c 0.1095,-0.14721 0.13594,-0.20973 0.0588,-0.13894 -0.12254,0.1124 -0.1471,0.0964 -0.19364,-0.12577 -0.0293,-0.13997 -0.0311,-0.32382 -0.004,-0.40856 0.0271,-0.0847 -0.011,-0.29519 -0.0847,-0.46767 -0.19736,-0.4616 -0.43967,-0.61817 -0.43967,-0.28408 0,0.22672 -0.15572,0.41333 -0.34493,0.41333 -0.11371,0 -0.14782,0.0781 -0.14782,0.33863 0,0.18624 0.0365,0.36568 0.0812,0.39875 0.0472,0.0349 0.0624,-0.0142 0.0364,-0.1172 -0.0334,-0.13248 -0.01,-0.12132 0.0931,0.0441 0.0758,0.12178 0.19093,0.22142 0.25584,0.22142 0.0649,0 0.0978,0.0393 0.073,0.0872 -0.0247,0.048 0.0286,0.11027 0.11845,0.13844 0.0899,0.0282 0.143,0.0116 0.118,-0.0369 -0.025,-0.0485 0.0117,-0.0618 0.0815,-0.0297 0.0698,0.0321 0.10653,0.098 0.0815,0.14649 -0.0905,0.17546 0.0221,0.0822 0.21686,-0.17955 z"
           id="path2984" />
        <path
           style="fill:none;stroke:#000000;stroke-width:0.5;stroke-miterlimit:4;stroke-dasharray:none;stroke-opacity:1"
           d="m 125.3554,46.116713 c -0.0564,-0.10825 -0.18279,-0.19682 -0.28084,-0.19682 -0.0982,0 -0.2737,-0.13593 -0.39087,-0.30278 -0.17038,-0.24265 -0.21261,-0.4067 -0.21261,-0.82597 0,-0.36069 -0.0361,-0.5398 -0.11639,-0.5767 -0.26029,-0.11969 -0.29615,0.8994 -0.0488,1.38561 0.0895,0.17591 0.18385,0.31984 0.20966,0.31984 0.0258,0 -0.0106,-0.0984 -0.0809,-0.21872 -0.0703,-0.12029 -0.12629,-0.30851 -0.1244,-0.41825 0.003,-0.15285 0.0403,-0.11895 0.16081,0.14491 0.24801,0.54284 0.17948,0.86072 -0.13226,0.61357 -0.34483,-0.27338 -0.48587,-1.61214 -0.23186,-2.20076 0.14622,-0.33881 0.67605,-0.67078 1.07591,-0.6741 0.32723,-0.003 1.01242,0.34255 1.0141,0.511 9e-4,0.089 0.0249,0.0827 0.0809,-0.0211 0.34748,-0.64432 -0.40098,-2.26345 -1.04631,-2.26345 -0.0956,0 -0.23318,-0.0711 -0.30572,-0.15805 -0.35197,-0.42177 0.57018,-0.61289 1.09772,-0.2275 1.00601,0.73492 1.218,2.26888 0.5366,3.88272 -0.24476,0.5797 -0.84101,1.42338 -1.00592,1.42338 -0.0529,0 -0.14238,-0.0886 -0.1988,-0.19682 z"
           id="path2982" />
        <path
           style="fill:none;stroke:#000000;stroke-width:0.5;stroke-miterlimit:4;stroke-dasharray:none;stroke-opacity:1"
           d="m 142.96175,46.707183 c 0,-0.0812 0.0498,-0.30261 0.11069,-0.49205 0.0609,-0.18945 0.11069,-0.27802 0.11069,-0.19683 0,0.0812 -0.0498,0.30262 -0.11069,0.49206 -0.0609,0.18944 -0.11069,0.27801 -0.11069,0.19682 z"
           id="path2980" />
        <path
           style="fill:none;stroke:#000000;stroke-width:0.5;stroke-miterlimit:4;stroke-dasharray:none;stroke-opacity:1"
           d="m 132.84739,47.323793 c -0.27298,-0.41586 -0.1384,-0.88626 0.89435,-3.1261 0.56152,-1.21782 0.64735,-1.45243 0.88211,-2.41107 0.58249,-2.37859 0.39059,-5.79912 -0.51623,-9.20144 -0.0721,-0.27063 -0.14831,-0.55848 -0.16929,-0.63967 -0.021,-0.0812 0.0355,-0.0395 0.12548,0.0927 0.09,0.13219 0.20664,0.42004 0.25921,0.63967 0.0526,0.21963 0.15254,0.54865 0.22218,0.73115 0.31671,0.83005 0.60699,3.39636 0.60812,5.37602 0.001,2.3442 -0.23846,3.41719 -1.28657,5.75705 -0.80406,1.79501 -0.97087,2.29846 -0.85071,2.5675 0.0462,0.10341 0.14028,0.18801 0.20911,0.18801 0.0737,0 0.10105,-0.0467 0.0666,-0.11362 -0.0368,-0.0713 -0.0225,-0.0869 0.0384,-0.0418 0.0579,0.0429 0.2724,-0.11966 0.53189,-0.40304 0.23916,-0.26119 0.7017,-0.64947 1.02785,-0.86283 0.71161,-0.46553 1.21939,-1.08921 1.57695,-1.93688 0.3891,-0.92244 0.48107,-1.52273 0.48437,-3.16161 0.002,-0.79835 0.0343,-1.45156 0.0727,-1.45156 0.18868,0 0.18267,2.83644 -0.008,3.73626 -0.26857,1.26795 -1.0051,2.40024 -1.98477,3.05125 -0.32003,0.21266 -0.6945,0.51065 -0.83217,0.66221 -0.83259,0.91658 -1.0513,1.00521 -1.3516,0.54773 z"
           id="path2954" />
        <path
           style="fill:none;stroke:#000000;stroke-width:0.5;stroke-miterlimit:4;stroke-dasharray:none;stroke-opacity:1"
           d="m 139.49999,47.685093 c 0,-0.0507 0.15399,-0.0922 0.34219,-0.0922 0.40527,0 0.39222,0.0487 -0.0342,0.1275 -0.1706,0.0316 -0.30797,0.0158 -0.30797,-0.0353 z"
           id="path2952" />
        <path
           style="fill:none;stroke:#000000;stroke-width:0.5;stroke-miterlimit:4;stroke-dasharray:none;stroke-opacity:1"
           d="m 142.53862,48.183343 c 0,-0.0541 0.0392,-0.0984 0.087,-0.0984 0.0478,0 0.0641,0.0443 0.0362,0.0984 -0.0279,0.0541 -0.067,0.0984 -0.087,0.0984 -0.0199,0 -0.0362,-0.0443 -0.0362,-0.0984 z"
           id="path2950" />
        <path
           style="fill:none;stroke:#000000;stroke-width:0.5;stroke-miterlimit:4;stroke-dasharray:none;stroke-opacity:1"
           d="m 135.29108,48.470793 c -0.30489,-0.21279 -0.19211,-0.61867 0.56016,-2.01603 0.50326,-0.93481 0.73005,-1.49167 1.09345,-2.68489 0.31135,-1.0223 0.47961,-2.57975 0.34693,-3.21118 -0.0982,-0.46754 -0.1258,-1.50342 -0.0372,-1.39721 0.20435,0.24488 0.33033,2.48473 0.1947,3.46173 -0.16792,1.20952 -0.77293,2.91693 -1.48203,4.18247 -0.6244,1.11438 -0.71134,1.47617 -0.35473,1.47617 0.49592,0 1.56827,-1.13603 2.06699,-2.18972 0.41414,-0.875 0.60612,-1.7703 0.62781,-2.92766 0.0231,-1.23262 0.006,-1.13571 0.20273,-1.15346 0.23575,-0.0213 0.37399,0.55656 0.37009,1.54711 -0.004,1.13505 -0.13275,1.70749 -0.70411,3.14158 -0.30757,0.77202 -0.45833,1.25702 -0.40907,1.31605 0.15086,0.18078 1.02801,-0.73519 0.95163,-0.99375 -0.0208,-0.0705 -8.2e-4,-0.10047 0.0452,-0.0667 0.0981,0.0727 0.46125,-0.83925 0.62156,-1.56074 0.15899,-0.71551 0.142,-1.35006 -0.0558,-2.08364 -0.1853,-0.68729 -0.16426,-0.83537 0.11868,-0.83537 0.30069,0 0.4412,0.21235 0.48631,0.73486 0.0232,0.26886 0.0828,0.50504 0.1324,0.52486 0.11309,0.0452 0.12077,1.28824 0.0101,1.637 -0.14836,0.46757 -0.22341,0.25754 -0.2175,-0.60866 0.006,-0.81451 -0.17933,-1.87499 -0.37229,-2.13552 -0.11328,-0.15293 -0.0801,0.21623 0.0539,0.60073 0.18801,0.53919 0.16263,1.92397 -0.0495,2.69947 -0.21723,0.79423 -0.26702,0.90902 -0.66808,1.54042 -0.40489,0.63741 -0.79186,0.94293 -1.08328,0.85529 -0.3609,-0.10855 -0.31728,-0.46714 0.21334,-1.75366 0.48185,-1.1683 0.7284,-2.21797 0.717,-3.05261 -0.014,-1.0275 -0.13871,-1.19761 -0.14787,-0.20176 -0.015,1.62672 -0.40551,2.8265 -1.29466,3.97731 -0.80316,1.03951 -1.51479,1.47211 -1.93694,1.17747 z"
           id="path2936" />
        <path
           style="fill:none;stroke:#000000;stroke-width:0.5;stroke-miterlimit:4;stroke-dasharray:none;stroke-opacity:1"
           d="m 138.18599,48.895673 c 0.20326,-0.27248 0.41402,-0.49993 0.46835,-0.50543 0.0543,-0.006 0.21758,-0.18716 0.36277,-0.40366 0.2813,-0.41944 0.40076,-0.49025 0.40076,-0.23753 0,0.21303 -0.86693,1.19563 -1.27221,1.44195 l -0.32923,0.2001 z"
           id="path2930" />
        <path
           style="fill:none;stroke:#000000;stroke-width:0.5;stroke-miterlimit:4;stroke-dasharray:none;stroke-opacity:1"
           d="m 115.01618,50.471313 c -0.10214,-0.15609 -0.0993,-0.15957 0.031,-0.0372 0.1368,0.12856 0.18031,0.20937 0.11271,0.20937 -0.0171,0 -0.0817,-0.0775 -0.14372,-0.17222 z"
           id="path2916" />
        <path
           style="fill:none;stroke:#000000;stroke-width:0.5;stroke-miterlimit:4;stroke-dasharray:none;stroke-opacity:1"
           d="m 130.36282,51.693443 c -0.0335,-0.0991 -0.0585,-0.29843 -0.0556,-0.44285 l 0.005,-0.26258 0.0804,0.24141 c 0.0442,0.13278 0.0693,0.33207 0.0556,0.44285 -0.023,0.18696 -0.0292,0.18848 -0.0856,0.0212 z"
           id="path2904" />
        <path
           style="fill:none;stroke:#000000;stroke-width:0.5;stroke-miterlimit:4;stroke-dasharray:none;stroke-opacity:1"
           d="m 122.29476,52.119733 c 0.0279,-0.0541 0.0877,-0.0984 0.13288,-0.0984 0.0452,0 0.0593,0.0443 0.0314,0.0984 -0.0279,0.0541 -0.0877,0.0984 -0.13288,0.0984 -0.0452,0 -0.0593,-0.0443 -0.0314,-0.0984 z"
           id="path2902" />
        <path
           style="fill:none;stroke:#000000;stroke-width:0.5;stroke-miterlimit:4;stroke-dasharray:none;stroke-opacity:1"
           d="m 140.15699,52.349343 c -0.55515,-0.23207 -1.55872,-1.11546 -1.2672,-1.11546 0.0257,0 0.20128,0.12663 0.39009,0.28139 1.12174,0.91947 1.72173,0.97152 2.19397,0.19033 0.13393,-0.22156 0.24352,-0.45168 0.24352,-0.51137 0,-0.18853 -0.95096,-0.83642 -2.21738,-1.5107 -0.17702,-0.0942 -0.18268,-0.11004 -0.0411,-0.11455 0.59911,-0.0191 2.42269,1.17561 2.42269,1.58717 0,0.35358 -0.38567,1.02523 -0.68714,1.19665 -0.3461,0.19681 -0.56012,0.19609 -1.03749,-0.004 z"
           id="path2898" />
        <path
           style="fill:none;stroke:#000000;stroke-width:0.5;stroke-miterlimit:4;stroke-dasharray:none;stroke-opacity:1"
           d="m 131.0847,52.419743 c -0.0325,-0.063 -0.0362,-0.22368 -0.008,-0.3571 0.0352,-0.16818 0.0124,-0.26026 -0.0744,-0.30017 -0.0689,-0.0317 -0.1252,-0.0945 -0.1252,-0.13962 0,-0.0451 0.10163,-0.0185 0.22584,0.0591 0.27874,0.17424 0.60843,0.18269 0.75532,0.0194 0.0902,-0.10033 0.10149,-0.0918 0.0611,0.0461 -0.0273,0.093 -0.0142,0.19524 0.029,0.22723 0.0432,0.032 0.0785,0.10245 0.0785,0.15658 0,0.0541 -0.0433,0.0664 -0.0962,0.0272 -0.0529,-0.0392 -0.25975,-0.0847 -0.45968,-0.10125 -0.28384,-0.0234 -0.34478,-0.003 -0.27808,0.0933 0.0475,0.0686 0.0556,0.18112 0.0183,0.25356 -0.0496,0.0962 -0.0826,0.10034 -0.12621,0.0157 z"
           id="path2896" />
        <path
           style="fill:none;stroke:#000000;stroke-width:0.5;stroke-miterlimit:4;stroke-dasharray:none;stroke-opacity:1"
           d="m 121.35032,52.532923 c 0,-0.10225 0.17794,-0.31491 0.2635,-0.31491 0.0365,0 0.0202,0.0886 -0.0362,0.19682 -0.10362,0.19883 -0.22732,0.26309 -0.22732,0.11809 z"
           id="path2894" />
        <path
           style="fill:none;stroke:#000000;stroke-width:0.5;stroke-miterlimit:4;stroke-dasharray:none;stroke-opacity:1"
           d="m 114.1233,52.551323 c 0,-0.12016 0.45189,-0.6307 0.76228,-0.86121 0.24011,-0.17831 0.23638,-0.38786 -0.005,-0.29505 -0.1064,0.0409 -0.11413,0.0311 -0.0314,-0.0399 0.0837,-0.0718 -0.019,-0.23114 -0.4343,-0.67356 -0.29918,-0.31871 -0.71704,-0.88947 -0.92859,-1.26835 -0.21154,-0.37888 -0.4476,-0.77745 -0.52458,-0.8857 -0.077,-0.10825 -0.16201,-0.32968 -0.18899,-0.49206 -0.0387,-0.23284 -0.033,-0.25214 0.0269,-0.0914 0.2121,0.56934 1.43069,2.50244 1.57749,2.50244 0.0322,0 0.18596,0.14392 0.34169,0.31983 0.15572,0.17591 0.38344,0.42676 0.50603,0.55744 l 0.22288,0.2376 -0.25206,0.12701 c -0.28099,0.14157 -0.81173,0.58686 -0.96942,0.81334 -0.0565,0.0811 -0.10265,0.10338 -0.10265,0.0495 z"
           id="path2892" />
        <path
           style="fill:none;stroke:#000000;stroke-width:0.5;stroke-miterlimit:4;stroke-dasharray:none;stroke-opacity:1"
           d="m 123.64983,52.734113 c 0,-0.0411 0.0831,-0.13595 0.18478,-0.21076 0.18412,-0.13555 0.18422,-0.13528 0.0283,0.0747 -0.16738,0.22548 -0.21311,0.25468 -0.21311,0.13602 z"
           id="path2870" />
        <path
           style="fill:none;stroke:#000000;stroke-width:0.5;stroke-miterlimit:4;stroke-dasharray:none;stroke-opacity:1"
           d="m 131.21183,52.751413 c 0.004,-0.11465 0.0234,-0.13796 0.0496,-0.0595 0.0237,0.071 0.0208,0.15592 -0.006,0.18862 -0.0273,0.0327 -0.0467,-0.0254 -0.0431,-0.12916 z"
           id="path2868" />
        <path
           style="fill:none;stroke:#000000;stroke-width:0.5;stroke-miterlimit:4;stroke-dasharray:none;stroke-opacity:1"
           d="m 122.6327,53.502773 c 0.1407,-0.0403 0.39116,-0.19689 0.55658,-0.34809 0.16542,-0.15119 0.31965,-0.25228 0.34271,-0.22463 0.078,0.0935 -0.75734,0.66613 -0.95698,0.65598 -0.16737,-0.008 -0.15841,-0.0214 0.0577,-0.0833 z"
           id="path2858" />
        <path
           style="fill:none;stroke:#000000;stroke-width:0.5;stroke-miterlimit:4;stroke-dasharray:none;stroke-opacity:1"
           d="m 120.57013,53.623313 c -0.24794,-0.073 -0.35356,-0.20793 -0.41187,-0.52606 -0.0291,-0.15864 -0.0834,-0.28843 -0.12077,-0.28843 -0.0374,0 -0.0479,-0.0918 -0.0234,-0.20405 0.0434,-0.19906 -0.0837,-0.8548 -0.23216,-1.19697 -0.0408,-0.094 -0.0741,-0.26006 -0.0741,-0.36905 0,-0.23141 0.25718,-0.26177 0.77059,-0.0909 0.23355,0.0777 0.50829,0.074 1.02656,-0.0138 0.65637,-0.11122 1.91458,-0.51861 2.1038,-0.68117 0.0452,-0.0388 0.25957,-0.12811 0.47645,-0.19845 0.2895,-0.0939 0.38201,-0.16638 0.34797,-0.27266 -0.0386,-0.12058 0.019,-0.13308 0.3448,-0.0748 0.21514,0.0385 0.51315,0.13083 0.66226,0.20526 0.25009,0.12484 0.26311,0.15272 0.16804,0.35968 -0.0567,0.12339 -0.10476,0.27111 -0.10685,0.32826 -0.005,0.13265 -1.02266,1.36508 -1.07528,1.30202 -0.0217,-0.0259 0.0901,-0.19791 0.24827,-0.38212 0.15821,-0.18422 0.28687,-0.40136 0.28591,-0.48255 -0.002,-0.13122 -0.0128,-0.13122 -0.10178,0 -0.19552,0.28849 -0.72343,0.78728 -0.83324,0.78728 -0.0613,0 -0.13339,-0.0682 -0.16008,-0.15157 -0.0297,-0.0926 -0.008,-0.14046 0.0552,-0.12302 0.0571,0.0157 0.40458,-0.28914 0.7723,-0.67742 0.68729,-0.72574 0.7089,-0.81938 0.18908,-0.81938 -0.12807,0 -0.40651,0.0892 -0.61877,0.19822 -0.6635,0.34081 -1.61539,0.69893 -2.2424,0.84363 -0.70622,0.16298 -1.76278,0.18274 -1.98971,0.0372 -0.15874,-0.1018 -0.23727,0.0322 -0.085,0.14497 0.0406,0.0301 0.12037,0.28734 0.1772,0.57167 0.14469,0.72389 0.27777,1.07185 0.50938,1.33185 l 0.1999,0.22443 0.21746,-0.39375 c 0.13726,-0.24855 0.2606,-0.37392 0.33444,-0.33997 0.0643,0.0296 0.2216,-0.0267 0.34946,-0.12512 l 0.23248,-0.17892 -0.21455,0.34366 c -0.56621,0.90692 -0.74104,1.04188 -1.18158,0.91212 z"
           id="path2856" />
        <path
           style="fill:none;stroke:#000000;stroke-width:0.5;stroke-miterlimit:4;stroke-dasharray:none;stroke-opacity:1"
           d="m 131.41594,53.624813 c -0.0446,-0.14025 -0.0351,-0.15156 0.046,-0.0551 0.0561,0.0668 0.0814,0.14617 0.0561,0.17647 -0.0253,0.0303 -0.0712,-0.0243 -0.10205,-0.12138 z"
           id="path2850" />
        <path
           style="fill:none;stroke:#000000;stroke-width:0.5;stroke-miterlimit:4;stroke-dasharray:none;stroke-opacity:1"
           d="m 117.07981,55.104253 c 0,-0.0462 0.12935,-0.31412 0.28744,-0.59543 0.15809,-0.2813 0.28744,-0.53445 0.28744,-0.56255 0,-0.0281 -0.14106,-0.13732 -0.31347,-0.24271 -0.1724,-0.1054 -0.36287,-0.26297 -0.42325,-0.35016 -0.0604,-0.0872 -0.24609,-0.28788 -0.41267,-0.44598 l -0.30288,-0.28746 -0.32096,0.20172 c -0.17653,0.11094 -0.45955,0.33263 -0.62893,0.49263 -0.16939,0.16001 -0.30797,0.24557 -0.30797,0.19014 0,-0.0554 0.10163,-0.17777 0.22584,-0.27186 0.47833,-0.36234 0.91636,-0.79381 0.86651,-0.85355 -0.0286,-0.0343 0.007,-0.0624 0.0801,-0.0624 0.0727,0 0.38375,0.25561 0.69121,0.56802 0.30747,0.31241 0.66066,0.62989 0.78487,0.70551 0.12422,0.0756 0.22585,0.16825 0.22585,0.20585 0,0.0376 0.0974,0.18511 0.21651,0.32781 0.11909,0.14269 0.17904,0.25945 0.13324,0.25945 -0.0458,0 -0.12893,-0.0659 -0.18475,-0.14654 -0.12846,-0.18548 -0.18224,-0.14286 -0.57938,0.4592 -0.17861,0.27076 -0.32475,0.45452 -0.32475,0.40834 z"
           id="path2836" />
        <path
           style="fill:none;stroke:#000000;stroke-width:0.5;stroke-miterlimit:4;stroke-dasharray:none;stroke-opacity:1"
           d="m 118.76338,55.014653 -0.24638,-0.25367 0.26691,0.21165 c 0.1468,0.11641 0.26691,0.23079 0.26691,0.25416 0,0.0737 -0.0348,0.048 -0.28744,-0.21214 z"
           id="path2832" />
        <path
           style="fill:none;stroke:#000000;stroke-width:0.5;stroke-miterlimit:4;stroke-dasharray:none;stroke-opacity:1"
           d="m 118.87766,56.572883 c 0.0435,-0.0947 0.13596,-0.26079 0.20559,-0.36904 0.10007,-0.15558 0.12714,-0.16462 0.12921,-0.0432 0.001,0.0845 -0.0727,0.25058 -0.16485,0.36904 -0.20165,0.25938 -0.27802,0.27877 -0.16995,0.0432 z"
           id="path2810" />
        <path
           style="fill:none;stroke:#000000;stroke-width:0.5;stroke-miterlimit:4;stroke-dasharray:none;stroke-opacity:1"
           d="m 122.5822,57.237163 c -0.0677,-0.0525 -0.23778,-0.0961 -0.37784,-0.0969 -0.23594,-10e-4 -0.57696,-0.10329 -0.97723,-0.29198 -0.53837,-0.25381 -1.08423,-0.55167 -1.19081,-0.64981 -0.28847,-0.26561 -0.64316,-0.41468 -0.73237,-0.30779 -0.11109,0.13312 -0.12182,-0.11179 -0.0138,-0.31611 0.0579,-0.10964 0.18562,-0.0481 0.63521,0.30638 0.89833,0.7082 2.15952,1.20693 3.51921,1.39166 0.1355,0.0184 0.0246,0.0394 -0.24638,0.0467 -0.27101,0.007 -0.54819,-0.0297 -0.61594,-0.0822 z"
           id="path2790" />
        <path
           style="fill:none;stroke:#000000;stroke-width:0.5;stroke-miterlimit:4;stroke-dasharray:none;stroke-opacity:1"
           d="m 137.44686,57.249393 c -1.54855,-0.60769 -2.66512,-1.42506 -3.90094,-2.85566 -0.31619,-0.36601 -0.64934,-0.71323 -0.74036,-0.7716 -0.091,-0.0584 -0.25173,-0.29003 -0.35715,-0.5148 -0.15831,-0.33753 -0.0335,-0.22116 0.71671,0.66841 1.28683,1.5258 2.72034,2.61823 4.19962,3.20039 1.10694,0.43562 1.10453,0.43574 1.30661,-0.0645 0.37332,-0.92411 0.09,-1.20459 -2.84051,-2.81167 -0.50488,-0.27687 -0.98882,-0.50341 -1.07543,-0.50341 -0.16089,0 -0.97327,-0.58932 -1.50603,-1.09251 -0.42297,-0.3995 -1.22278,-1.8567 -1.22278,-2.22783 0,-0.25682 0.1982,-0.61817 0.27815,-0.50711 0.0153,0.0212 0.1418,0.32648 0.28113,0.6783 0.1726,0.43584 0.43434,0.85412 0.82138,1.31266 l 0.56806,0.67299 0.27805,-0.28727 c 0.67176,-0.69403 2.33418,-2.00575 2.71632,-2.14328 0.16743,-0.0602 0.17525,-0.0514 0.0666,0.0752 -0.0678,0.0789 -0.41458,0.35206 -0.77072,0.60696 -0.35614,0.25489 -0.9244,0.71542 -1.2628,1.02338 -1.05793,0.96279 -1.04359,0.95502 -1.32314,0.7165 -0.3846,-0.32817 -1.09162,-1.30455 -1.25357,-1.73114 -0.10237,-0.26968 -0.15,-0.32922 -0.15123,-0.18909 -0.004,0.48284 0.92989,1.73785 1.92098,2.5808 0.26707,0.22716 0.55326,0.41301 0.63597,0.41301 0.20522,0 2.4549,1.12111 3.08064,1.53521 0.96734,0.64016 1.22846,1.21866 0.9062,2.00759 -0.228,0.55818 -0.40996,0.58582 -1.37171,0.20841 z"
           id="path2786" />
        <path
           style="fill:none;stroke:#000000;stroke-width:0.5;stroke-miterlimit:4;stroke-dasharray:none;stroke-opacity:1"
           d="m 125.10755,57.463573 c 0.10163,-0.0235 0.26793,-0.0235 0.36956,0 0.10163,0.0235 0.0185,0.0427 -0.18478,0.0427 -0.20326,0 -0.28641,-0.0192 -0.18478,-0.0427 z"
           id="path2784" />
        <path
           style="fill:none;stroke:#000000;stroke-width:0.5;stroke-miterlimit:4;stroke-dasharray:none;stroke-opacity:1"
           d="m 134.58918,59.352423 c -0.32959,-0.3514 -0.64372,-0.641 -0.69807,-0.64356 -0.30787,-0.0145 -1.71682,-2.63445 -2.07988,-3.86756 -0.15678,-0.53244 -0.0153,-0.34115 0.16846,0.22787 0.24745,0.76602 1.82296,3.44752 2.02558,3.44752 0.0365,0 0.35423,0.28786 0.70596,0.63967 0.35173,0.35182 0.66766,0.63968 0.70207,0.63968 0.0344,0 0.0626,0.0443 0.0626,0.0984 0,0.24966 -0.33783,0.0431 -0.88668,-0.54203 z"
           id="path2760" />
        <path
           style="fill:none;stroke:#000000;stroke-width:0.5;stroke-miterlimit:4;stroke-dasharray:none;stroke-opacity:1"
           d="m 130.12376,49.856523 c 0.001,-0.0904 -0.0249,-0.0714 -0.0682,0.0492 -0.0388,0.10825 -0.0695,0.28539 -0.0682,0.39364 0.002,0.15823 0.0153,0.14858 0.0682,-0.0492 0.0362,-0.13531 0.0669,-0.31245 0.0682,-0.39364 z"
           id="path2758" />
      </g>
      <path
         id="path5402"
         style="fill:url(#pattern24782);fill-rule:evenodd;stroke:url(#meshgradient24896);stroke-width:0.497353;stroke-opacity:1"
         d="m 75.346004,197.52175 a 32.469126,29.911528 13.595246 0 0 31.555886,31.84273 32.469126,29.911528 13.595246 0 0 33.09204,-28.16152 32.469126,29.911528 13.595246 0 0 -31.5559,-31.84272 32.469126,29.911528 13.595246 0 0 -33.092026,28.16151 z" />
      <text
         xml:space="preserve"
         style="font-style:normal;font-weight:normal;font-size:10.5833px;line-height:1.25;font-family:sans-serif;fill:#000000;fill-opacity:1;stroke:none;stroke-width:0.264583"
         id="text26008"><textPath
           xlink:href="#path5402"
           id="textPath30494"><tspan
             id="tspan26006"
             style="stroke-width:0.264583">My sticker</tspan></textPath></text>
    </g>
    <text
       xml:space="preserve"
       transform="scale(0.26458333)"
       id="text36963"
       style="fill:black;fill-opacity:1;line-height:1.25;stroke:none;font-family:sans-serif;font-style:normal;font-weight:normal;font-size:40px;white-space:pre;shape-inside:url(#rect36965)" />
  </g>
  <script
     id="mesh_polyfill"
     type="text/javascript">
!function(){const t=&quot;http://www.w3.org/2000/svg&quot;,e=&quot;http://www.w3.org/1999/xlink&quot;,s=&quot;http://www.w3.org/1999/xhtml&quot;,r=2;if(document.createElementNS(t,&quot;meshgradient&quot;).x)return;const n=(t,e,s,r)=&gt;{let n=new x(.5*(e.x+s.x),.5*(e.y+s.y)),o=new x(.5*(t.x+e.x),.5*(t.y+e.y)),i=new x(.5*(s.x+r.x),.5*(s.y+r.y)),a=new x(.5*(n.x+o.x),.5*(n.y+o.y)),h=new x(.5*(n.x+i.x),.5*(n.y+i.y)),l=new x(.5*(a.x+h.x),.5*(a.y+h.y));return[[t,o,a,l],[l,h,i,r]]},o=t=&gt;{let e=t[0].distSquared(t[1]),s=t[2].distSquared(t[3]),r=.25*t[0].distSquared(t[2]),n=.25*t[1].distSquared(t[3]),o=e&gt;s?e:s,i=r&gt;n?r:n;return 18*(o&gt;i?o:i)},i=(t,e)=&gt;Math.sqrt(t.distSquared(e)),a=(t,e)=&gt;t.scale(2/3).add(e.scale(1/3)),h=t=&gt;{let e,s,r,n,o,i,a,h=new g;return t.match(/(\w+\(\s*[^)]+\))+/g).forEach(t=&gt;{let l=t.match(/[\w.-]+/g),d=l.shift();switch(d){case&quot;translate&quot;:2===l.length?e=new g(1,0,0,1,l[0],l[1]):(console.error(&quot;mesh.js: translate does not have 2 arguments!&quot;),e=new g(1,0,0,1,0,0)),h=h.append(e);break;case&quot;scale&quot;:1===l.length?s=new g(l[0],0,0,l[0],0,0):2===l.length?s=new g(l[0],0,0,l[1],0,0):(console.error(&quot;mesh.js: scale does not have 1 or 2 arguments!&quot;),s=new g(1,0,0,1,0,0)),h=h.append(s);break;case&quot;rotate&quot;:if(3===l.length&amp;&amp;(e=new g(1,0,0,1,l[1],l[2]),h=h.append(e)),l[0]){r=l[0]*Math.PI/180;let t=Math.cos(r),e=Math.sin(r);Math.abs(t)&lt;1e-16&amp;&amp;(t=0),Math.abs(e)&lt;1e-16&amp;&amp;(e=0),a=new g(t,e,-e,t,0,0),h=h.append(a)}else console.error(&quot;math.js: No argument to rotate transform!&quot;);3===l.length&amp;&amp;(e=new g(1,0,0,1,-l[1],-l[2]),h=h.append(e));break;case&quot;skewX&quot;:l[0]?(r=l[0]*Math.PI/180,n=Math.tan(r),o=new g(1,0,n,1,0,0),h=h.append(o)):console.error(&quot;math.js: No argument to skewX transform!&quot;);break;case&quot;skewY&quot;:l[0]?(r=l[0]*Math.PI/180,n=Math.tan(r),i=new g(1,n,0,1,0,0),h=h.append(i)):console.error(&quot;math.js: No argument to skewY transform!&quot;);break;case&quot;matrix&quot;:6===l.length?h=h.append(new g(...l)):console.error(&quot;math.js: Incorrect number of arguments for matrix!&quot;);break;default:console.error(&quot;mesh.js: Unhandled transform type: &quot;+d)}}),h},l=t=&gt;{let e=[],s=t.split(/[ ,]+/);for(let t=0,r=s.length-1;t&lt;r;t+=2)e.push(new x(parseFloat(s[t]),parseFloat(s[t+1])));return e},d=(t,e)=&gt;{for(let s in e)t.setAttribute(s,e[s])},c=(t,e,s,r,n)=&gt;{let o,i,a=[0,0,0,0];for(let h=0;h&lt;3;++h)e[h]&lt;t[h]&amp;&amp;e[h]&lt;s[h]||t[h]&lt;e[h]&amp;&amp;s[h]&lt;e[h]?a[h]=0:(a[h]=.5*((e[h]-t[h])/r+(s[h]-e[h])/n),o=Math.abs(3*(e[h]-t[h])/r),i=Math.abs(3*(s[h]-e[h])/n),a[h]&gt;o?a[h]=o:a[h]&gt;i&amp;&amp;(a[h]=i));return a},u=[[1,0,0,0,0,0,0,0,0,0,0,0,0,0,0,0],[0,0,0,0,1,0,0,0,0,0,0,0,0,0,0,0],[-3,3,0,0,-2,-1,0,0,0,0,0,0,0,0,0,0],[2,-2,0,0,1,1,0,0,0,0,0,0,0,0,0,0],[0,0,0,0,0,0,0,0,1,0,0,0,0,0,0,0],[0,0,0,0,0,0,0,0,0,0,0,0,1,0,0,0],[0,0,0,0,0,0,0,0,-3,3,0,0,-2,-1,0,0],[0,0,0,0,0,0,0,0,2,-2,0,0,1,1,0,0],[-3,0,3,0,0,0,0,0,-2,0,-1,0,0,0,0,0],[0,0,0,0,-3,0,3,0,0,0,0,0,-2,0,-1,0],[9,-9,-9,9,6,3,-6,-3,6,-6,3,-3,4,2,2,1],[-6,6,6,-6,-3,-3,3,3,-4,4,-2,2,-2,-2,-1,-1],[2,0,-2,0,0,0,0,0,1,0,1,0,0,0,0,0],[0,0,0,0,2,0,-2,0,0,0,0,0,1,0,1,0],[-6,6,6,-6,-4,-2,4,2,-3,3,-3,3,-2,-1,-2,-1],[4,-4,-4,4,2,2,-2,-2,2,-2,2,-2,1,1,1,1]],f=t=&gt;{let e=[];for(let s=0;s&lt;16;++s){e[s]=0;for(let r=0;r&lt;16;++r)e[s]+=u[s][r]*t[r]}return e},p=(t,e,s)=&gt;{const r=e*e,n=s*s,o=e*e*e,i=s*s*s;return t[0]+t[1]*e+t[2]*r+t[3]*o+t[4]*s+t[5]*s*e+t[6]*s*r+t[7]*s*o+t[8]*n+t[9]*n*e+t[10]*n*r+t[11]*n*o+t[12]*i+t[13]*i*e+t[14]*i*r+t[15]*i*o},y=t=&gt;{let e=[],s=[],r=[];for(let s=0;s&lt;4;++s)e[s]=[],e[s][0]=n(t[0][s],t[1][s],t[2][s],t[3][s]),e[s][1]=[],e[s][1].push(...n(...e[s][0][0])),e[s][1].push(...n(...e[s][0][1])),e[s][2]=[],e[s][2].push(...n(...e[s][1][0])),e[s][2].push(...n(...e[s][1][1])),e[s][2].push(...n(...e[s][1][2])),e[s][2].push(...n(...e[s][1][3]));for(let t=0;t&lt;8;++t){s[t]=[];for(let r=0;r&lt;4;++r)s[t][r]=[],s[t][r][0]=n(e[0][2][t][r],e[1][2][t][r],e[2][2][t][r],e[3][2][t][r]),s[t][r][1]=[],s[t][r][1].push(...n(...s[t][r][0][0])),s[t][r][1].push(...n(...s[t][r][0][1])),s[t][r][2]=[],s[t][r][2].push(...n(...s[t][r][1][0])),s[t][r][2].push(...n(...s[t][r][1][1])),s[t][r][2].push(...n(...s[t][r][1][2])),s[t][r][2].push(...n(...s[t][r][1][3]))}for(let t=0;t&lt;8;++t){r[t]=[];for(let e=0;e&lt;8;++e)r[t][e]=[],r[t][e][0]=s[t][0][2][e],r[t][e][1]=s[t][1][2][e],r[t][e][2]=s[t][2][2][e],r[t][e][3]=s[t][3][2][e]}return r};class x{constructor(t,e){this.x=t||0,this.y=e||0}toString(){return`(x=${this.x}, y=${this.y})`}clone(){return new x(this.x,this.y)}add(t){return new x(this.x+t.x,this.y+t.y)}scale(t){return void 0===t.x?new x(this.x*t,this.y*t):new x(this.x*t.x,this.y*t.y)}distSquared(t){let e=this.x-t.x,s=this.y-t.y;return e*e+s*s}transform(t){let e=this.x*t.a+this.y*t.c+t.e,s=this.x*t.b+this.y*t.d+t.f;return new x(e,s)}}class g{constructor(t,e,s,r,n,o){void 0===t?(this.a=1,this.b=0,this.c=0,this.d=1,this.e=0,this.f=0):(this.a=t,this.b=e,this.c=s,this.d=r,this.e=n,this.f=o)}toString(){return`affine: ${this.a} ${this.c} ${this.e} \n       ${this.b} ${this.d} ${this.f}`}append(t){t instanceof g||console.error(&quot;mesh.js: argument to Affine.append is not affine!&quot;);let e=this.a*t.a+this.c*t.b,s=this.b*t.a+this.d*t.b,r=this.a*t.c+this.c*t.d,n=this.b*t.c+this.d*t.d,o=this.a*t.e+this.c*t.f+this.e,i=this.b*t.e+this.d*t.f+this.f;return new g(e,s,r,n,o,i)}}class w{constructor(t,e){this.nodes=t,this.colors=e}paintCurve(t,e){if(o(this.nodes)&gt;r){const s=n(...this.nodes);let r=[[],[]],o=[[],[]];for(let t=0;t&lt;4;++t)r[0][t]=this.colors[0][t],r[1][t]=(this.colors[0][t]+this.colors[1][t])/2,o[0][t]=r[1][t],o[1][t]=this.colors[1][t];let i=new w(s[0],r),a=new w(s[1],o);i.paintCurve(t,e),a.paintCurve(t,e)}else{let s=Math.round(this.nodes[0].x);if(s&gt;=0&amp;&amp;s&lt;e){let r=4*(~~this.nodes[0].y*e+s);t[r]=Math.round(this.colors[0][0]),t[r+1]=Math.round(this.colors[0][1]),t[r+2]=Math.round(this.colors[0][2]),t[r+3]=Math.round(this.colors[0][3])}}}}class m{constructor(t,e){this.nodes=t,this.colors=e}split(){let t=[[],[],[],[]],e=[[],[],[],[]],s=[[[],[]],[[],[]]],r=[[[],[]],[[],[]]];for(let s=0;s&lt;4;++s){const r=n(this.nodes[0][s],this.nodes[1][s],this.nodes[2][s],this.nodes[3][s]);t[0][s]=r[0][0],t[1][s]=r[0][1],t[2][s]=r[0][2],t[3][s]=r[0][3],e[0][s]=r[1][0],e[1][s]=r[1][1],e[2][s]=r[1][2],e[3][s]=r[1][3]}for(let t=0;t&lt;4;++t)s[0][0][t]=this.colors[0][0][t],s[0][1][t]=this.colors[0][1][t],s[1][0][t]=(this.colors[0][0][t]+this.colors[1][0][t])/2,s[1][1][t]=(this.colors[0][1][t]+this.colors[1][1][t])/2,r[0][0][t]=s[1][0][t],r[0][1][t]=s[1][1][t],r[1][0][t]=this.colors[1][0][t],r[1][1][t]=this.colors[1][1][t];return[new m(t,s),new m(e,r)]}paint(t,e){let s,n=!1;for(let t=0;t&lt;4;++t)if((s=o([this.nodes[0][t],this.nodes[1][t],this.nodes[2][t],this.nodes[3][t]]))&gt;r){n=!0;break}if(n){let s=this.split();s[0].paint(t,e),s[1].paint(t,e)}else{new w([...this.nodes[0]],[...this.colors[0]]).paintCurve(t,e)}}}class b{constructor(t){this.readMesh(t),this.type=t.getAttribute(&quot;type&quot;)||&quot;bilinear&quot;}readMesh(t){let e=[[]],s=[[]],r=Number(t.getAttribute(&quot;x&quot;)),n=Number(t.getAttribute(&quot;y&quot;));e[0][0]=new x(r,n);let o=t.children;for(let t=0,r=o.length;t&lt;r;++t){e[3*t+1]=[],e[3*t+2]=[],e[3*t+3]=[],s[t+1]=[];let r=o[t].children;for(let n=0,o=r.length;n&lt;o;++n){let o=r[n].children;for(let r=0,i=o.length;r&lt;i;++r){let i=r;0!==t&amp;&amp;++i;let h,d=o[r].getAttribute(&quot;path&quot;),c=&quot;l&quot;;null!=d&amp;&amp;(c=(h=d.match(/\s*([lLcC])\s*(.*)/))[1]);let u=l(h[2]);switch(c){case&quot;l&quot;:0===i?(e[3*t][3*n+3]=u[0].add(e[3*t][3*n]),e[3*t][3*n+1]=a(e[3*t][3*n],e[3*t][3*n+3]),e[3*t][3*n+2]=a(e[3*t][3*n+3],e[3*t][3*n])):1===i?(e[3*t+3][3*n+3]=u[0].add(e[3*t][3*n+3]),e[3*t+1][3*n+3]=a(e[3*t][3*n+3],e[3*t+3][3*n+3]),e[3*t+2][3*n+3]=a(e[3*t+3][3*n+3],e[3*t][3*n+3])):2===i?(0===n&amp;&amp;(e[3*t+3][3*n+0]=u[0].add(e[3*t+3][3*n+3])),e[3*t+3][3*n+1]=a(e[3*t+3][3*n],e[3*t+3][3*n+3]),e[3*t+3][3*n+2]=a(e[3*t+3][3*n+3],e[3*t+3][3*n])):(e[3*t+1][3*n]=a(e[3*t][3*n],e[3*t+3][3*n]),e[3*t+2][3*n]=a(e[3*t+3][3*n],e[3*t][3*n]));break;case&quot;L&quot;:0===i?(e[3*t][3*n+3]=u[0],e[3*t][3*n+1]=a(e[3*t][3*n],e[3*t][3*n+3]),e[3*t][3*n+2]=a(e[3*t][3*n+3],e[3*t][3*n])):1===i?(e[3*t+3][3*n+3]=u[0],e[3*t+1][3*n+3]=a(e[3*t][3*n+3],e[3*t+3][3*n+3]),e[3*t+2][3*n+3]=a(e[3*t+3][3*n+3],e[3*t][3*n+3])):2===i?(0===n&amp;&amp;(e[3*t+3][3*n+0]=u[0]),e[3*t+3][3*n+1]=a(e[3*t+3][3*n],e[3*t+3][3*n+3]),e[3*t+3][3*n+2]=a(e[3*t+3][3*n+3],e[3*t+3][3*n])):(e[3*t+1][3*n]=a(e[3*t][3*n],e[3*t+3][3*n]),e[3*t+2][3*n]=a(e[3*t+3][3*n],e[3*t][3*n]));break;case&quot;c&quot;:0===i?(e[3*t][3*n+1]=u[0].add(e[3*t][3*n]),e[3*t][3*n+2]=u[1].add(e[3*t][3*n]),e[3*t][3*n+3]=u[2].add(e[3*t][3*n])):1===i?(e[3*t+1][3*n+3]=u[0].add(e[3*t][3*n+3]),e[3*t+2][3*n+3]=u[1].add(e[3*t][3*n+3]),e[3*t+3][3*n+3]=u[2].add(e[3*t][3*n+3])):2===i?(e[3*t+3][3*n+2]=u[0].add(e[3*t+3][3*n+3]),e[3*t+3][3*n+1]=u[1].add(e[3*t+3][3*n+3]),0===n&amp;&amp;(e[3*t+3][3*n+0]=u[2].add(e[3*t+3][3*n+3]))):(e[3*t+2][3*n]=u[0].add(e[3*t+3][3*n]),e[3*t+1][3*n]=u[1].add(e[3*t+3][3*n]));break;case&quot;C&quot;:0===i?(e[3*t][3*n+1]=u[0],e[3*t][3*n+2]=u[1],e[3*t][3*n+3]=u[2]):1===i?(e[3*t+1][3*n+3]=u[0],e[3*t+2][3*n+3]=u[1],e[3*t+3][3*n+3]=u[2]):2===i?(e[3*t+3][3*n+2]=u[0],e[3*t+3][3*n+1]=u[1],0===n&amp;&amp;(e[3*t+3][3*n+0]=u[2])):(e[3*t+2][3*n]=u[0],e[3*t+1][3*n]=u[1]);break;default:console.error(&quot;mesh.js: &quot;+c+&quot; invalid path type.&quot;)}if(0===t&amp;&amp;0===n||r&gt;0){let e=window.getComputedStyle(o[r]).stopColor.match(/^rgb\s*\(\s*(\d+)\s*,\s*(\d+)\s*,\s*(\d+)\s*\)$/i),a=window.getComputedStyle(o[r]).stopOpacity,h=255;a&amp;&amp;(h=Math.floor(255*a)),e&amp;&amp;(0===i?(s[t][n]=[],s[t][n][0]=Math.floor(e[1]),s[t][n][1]=Math.floor(e[2]),s[t][n][2]=Math.floor(e[3]),s[t][n][3]=h):1===i?(s[t][n+1]=[],s[t][n+1][0]=Math.floor(e[1]),s[t][n+1][1]=Math.floor(e[2]),s[t][n+1][2]=Math.floor(e[3]),s[t][n+1][3]=h):2===i?(s[t+1][n+1]=[],s[t+1][n+1][0]=Math.floor(e[1]),s[t+1][n+1][1]=Math.floor(e[2]),s[t+1][n+1][2]=Math.floor(e[3]),s[t+1][n+1][3]=h):3===i&amp;&amp;(s[t+1][n]=[],s[t+1][n][0]=Math.floor(e[1]),s[t+1][n][1]=Math.floor(e[2]),s[t+1][n][2]=Math.floor(e[3]),s[t+1][n][3]=h))}}e[3*t+1][3*n+1]=new x,e[3*t+1][3*n+2]=new x,e[3*t+2][3*n+1]=new x,e[3*t+2][3*n+2]=new x,e[3*t+1][3*n+1].x=(-4*e[3*t][3*n].x+6*(e[3*t][3*n+1].x+e[3*t+1][3*n].x)+-2*(e[3*t][3*n+3].x+e[3*t+3][3*n].x)+3*(e[3*t+3][3*n+1].x+e[3*t+1][3*n+3].x)+-1*e[3*t+3][3*n+3].x)/9,e[3*t+1][3*n+2].x=(-4*e[3*t][3*n+3].x+6*(e[3*t][3*n+2].x+e[3*t+1][3*n+3].x)+-2*(e[3*t][3*n].x+e[3*t+3][3*n+3].x)+3*(e[3*t+3][3*n+2].x+e[3*t+1][3*n].x)+-1*e[3*t+3][3*n].x)/9,e[3*t+2][3*n+1].x=(-4*e[3*t+3][3*n].x+6*(e[3*t+3][3*n+1].x+e[3*t+2][3*n].x)+-2*(e[3*t+3][3*n+3].x+e[3*t][3*n].x)+3*(e[3*t][3*n+1].x+e[3*t+2][3*n+3].x)+-1*e[3*t][3*n+3].x)/9,e[3*t+2][3*n+2].x=(-4*e[3*t+3][3*n+3].x+6*(e[3*t+3][3*n+2].x+e[3*t+2][3*n+3].x)+-2*(e[3*t+3][3*n].x+e[3*t][3*n+3].x)+3*(e[3*t][3*n+2].x+e[3*t+2][3*n].x)+-1*e[3*t][3*n].x)/9,e[3*t+1][3*n+1].y=(-4*e[3*t][3*n].y+6*(e[3*t][3*n+1].y+e[3*t+1][3*n].y)+-2*(e[3*t][3*n+3].y+e[3*t+3][3*n].y)+3*(e[3*t+3][3*n+1].y+e[3*t+1][3*n+3].y)+-1*e[3*t+3][3*n+3].y)/9,e[3*t+1][3*n+2].y=(-4*e[3*t][3*n+3].y+6*(e[3*t][3*n+2].y+e[3*t+1][3*n+3].y)+-2*(e[3*t][3*n].y+e[3*t+3][3*n+3].y)+3*(e[3*t+3][3*n+2].y+e[3*t+1][3*n].y)+-1*e[3*t+3][3*n].y)/9,e[3*t+2][3*n+1].y=(-4*e[3*t+3][3*n].y+6*(e[3*t+3][3*n+1].y+e[3*t+2][3*n].y)+-2*(e[3*t+3][3*n+3].y+e[3*t][3*n].y)+3*(e[3*t][3*n+1].y+e[3*t+2][3*n+3].y)+-1*e[3*t][3*n+3].y)/9,e[3*t+2][3*n+2].y=(-4*e[3*t+3][3*n+3].y+6*(e[3*t+3][3*n+2].y+e[3*t+2][3*n+3].y)+-2*(e[3*t+3][3*n].y+e[3*t][3*n+3].y)+3*(e[3*t][3*n+2].y+e[3*t+2][3*n].y)+-1*e[3*t][3*n].y)/9}}this.nodes=e,this.colors=s}paintMesh(t,e){let s=(this.nodes.length-1)/3,r=(this.nodes[0].length-1)/3;if(&quot;bilinear&quot;===this.type||s&lt;2||r&lt;2){let n;for(let o=0;o&lt;s;++o)for(let s=0;s&lt;r;++s){let r=[];for(let t=3*o,e=3*o+4;t&lt;e;++t)r.push(this.nodes[t].slice(3*s,3*s+4));let i=[];i.push(this.colors[o].slice(s,s+2)),i.push(this.colors[o+1].slice(s,s+2)),(n=new m(r,i)).paint(t,e)}}else{let n,o,a,h,l,d,u;const x=s,g=r;s++,r++;let w=new Array(s);for(let t=0;t&lt;s;++t){w[t]=new Array(r);for(let e=0;e&lt;r;++e)w[t][e]=[],w[t][e][0]=this.nodes[3*t][3*e],w[t][e][1]=this.colors[t][e]}for(let t=0;t&lt;s;++t)for(let e=0;e&lt;r;++e)0!==t&amp;&amp;t!==x&amp;&amp;(n=i(w[t-1][e][0],w[t][e][0]),o=i(w[t+1][e][0],w[t][e][0]),w[t][e][2]=c(w[t-1][e][1],w[t][e][1],w[t+1][e][1],n,o)),0!==e&amp;&amp;e!==g&amp;&amp;(n=i(w[t][e-1][0],w[t][e][0]),o=i(w[t][e+1][0],w[t][e][0]),w[t][e][3]=c(w[t][e-1][1],w[t][e][1],w[t][e+1][1],n,o));for(let t=0;t&lt;r;++t){w[0][t][2]=[],w[x][t][2]=[];for(let e=0;e&lt;4;++e)n=i(w[1][t][0],w[0][t][0]),o=i(w[x][t][0],w[x-1][t][0]),w[0][t][2][e]=n&gt;0?2*(w[1][t][1][e]-w[0][t][1][e])/n-w[1][t][2][e]:0,w[x][t][2][e]=o&gt;0?2*(w[x][t][1][e]-w[x-1][t][1][e])/o-w[x-1][t][2][e]:0}for(let t=0;t&lt;s;++t){w[t][0][3]=[],w[t][g][3]=[];for(let e=0;e&lt;4;++e)n=i(w[t][1][0],w[t][0][0]),o=i(w[t][g][0],w[t][g-1][0]),w[t][0][3][e]=n&gt;0?2*(w[t][1][1][e]-w[t][0][1][e])/n-w[t][1][3][e]:0,w[t][g][3][e]=o&gt;0?2*(w[t][g][1][e]-w[t][g-1][1][e])/o-w[t][g-1][3][e]:0}for(let s=0;s&lt;x;++s)for(let r=0;r&lt;g;++r){let n=i(w[s][r][0],w[s+1][r][0]),o=i(w[s][r+1][0],w[s+1][r+1][0]),c=i(w[s][r][0],w[s][r+1][0]),x=i(w[s+1][r][0],w[s+1][r+1][0]),g=[[],[],[],[]];for(let t=0;t&lt;4;++t){(d=[])[0]=w[s][r][1][t],d[1]=w[s+1][r][1][t],d[2]=w[s][r+1][1][t],d[3]=w[s+1][r+1][1][t],d[4]=w[s][r][2][t]*n,d[5]=w[s+1][r][2][t]*n,d[6]=w[s][r+1][2][t]*o,d[7]=w[s+1][r+1][2][t]*o,d[8]=w[s][r][3][t]*c,d[9]=w[s+1][r][3][t]*x,d[10]=w[s][r+1][3][t]*c,d[11]=w[s+1][r+1][3][t]*x,d[12]=0,d[13]=0,d[14]=0,d[15]=0,u=f(d);for(let e=0;e&lt;9;++e){g[t][e]=[];for(let s=0;s&lt;9;++s)g[t][e][s]=p(u,e/8,s/8),g[t][e][s]&gt;255?g[t][e][s]=255:g[t][e][s]&lt;0&amp;&amp;(g[t][e][s]=0)}}h=[];for(let t=3*s,e=3*s+4;t&lt;e;++t)h.push(this.nodes[t].slice(3*r,3*r+4));l=y(h);for(let s=0;s&lt;8;++s)for(let r=0;r&lt;8;++r)(a=new m(l[s][r],[[[g[0][s][r],g[1][s][r],g[2][s][r],g[3][s][r]],[g[0][s][r+1],g[1][s][r+1],g[2][s][r+1],g[3][s][r+1]]],[[g[0][s+1][r],g[1][s+1][r],g[2][s+1][r],g[3][s+1][r]],[g[0][s+1][r+1],g[1][s+1][r+1],g[2][s+1][r+1],g[3][s+1][r+1]]]])).paint(t,e)}}}transform(t){if(t instanceof x)for(let e=0,s=this.nodes.length;e&lt;s;++e)for(let s=0,r=this.nodes[0].length;s&lt;r;++s)this.nodes[e][s]=this.nodes[e][s].add(t);else if(t instanceof g)for(let e=0,s=this.nodes.length;e&lt;s;++e)for(let s=0,r=this.nodes[0].length;s&lt;r;++s)this.nodes[e][s]=this.nodes[e][s].transform(t)}scale(t){for(let e=0,s=this.nodes.length;e&lt;s;++e)for(let s=0,r=this.nodes[0].length;s&lt;r;++s)this.nodes[e][s]=this.nodes[e][s].scale(t)}}document.querySelectorAll(&quot;rect,circle,ellipse,path,text&quot;).forEach((r,n)=&gt;{let o=r.getAttribute(&quot;id&quot;);o||(o=&quot;patchjs_shape&quot;+n,r.setAttribute(&quot;id&quot;,o));const i=r.style.fill.match(/^url\(\s*&quot;?\s*#([^\s&quot;]+)&quot;?\s*\)/),a=r.style.stroke.match(/^url\(\s*&quot;?\s*#([^\s&quot;]+)&quot;?\s*\)/);if(i&amp;&amp;i[1]){const a=document.getElementById(i[1]);if(a&amp;&amp;&quot;meshgradient&quot;===a.nodeName){const i=r.getBBox();let l=document.createElementNS(s,&quot;canvas&quot;);d(l,{width:i.width,height:i.height});const c=l.getContext(&quot;2d&quot;);let u=c.createImageData(i.width,i.height);const f=new b(a);&quot;objectBoundingBox&quot;===a.getAttribute(&quot;gradientUnits&quot;)&amp;&amp;f.scale(new x(i.width,i.height));const p=a.getAttribute(&quot;gradientTransform&quot;);null!=p&amp;&amp;f.transform(h(p)),&quot;userSpaceOnUse&quot;===a.getAttribute(&quot;gradientUnits&quot;)&amp;&amp;f.transform(new x(-i.x,-i.y)),f.paintMesh(u.data,l.width),c.putImageData(u,0,0);const y=document.createElementNS(t,&quot;image&quot;);d(y,{width:i.width,height:i.height,x:i.x,y:i.y});let g=l.toDataURL();y.setAttributeNS(e,&quot;xlink:href&quot;,g),r.parentNode.insertBefore(y,r),r.style.fill=&quot;none&quot;;const w=document.createElementNS(t,&quot;use&quot;);w.setAttributeNS(e,&quot;xlink:href&quot;,&quot;#&quot;+o);const m=&quot;patchjs_clip&quot;+n,M=document.createElementNS(t,&quot;clipPath&quot;);M.setAttribute(&quot;id&quot;,m),M.appendChild(w),r.parentElement.insertBefore(M,r),y.setAttribute(&quot;clip-path&quot;,&quot;url(#&quot;+m+&quot;)&quot;),u=null,l=null,g=null}}if(a&amp;&amp;a[1]){const o=document.getElementById(a[1]);if(o&amp;&amp;&quot;meshgradient&quot;===o.nodeName){const i=parseFloat(r.style.strokeWidth.slice(0,-2))*(parseFloat(r.style.strokeMiterlimit)||parseFloat(r.getAttribute(&quot;stroke-miterlimit&quot;))||1),a=r.getBBox(),l=Math.trunc(a.width+i),c=Math.trunc(a.height+i),u=Math.trunc(a.x-i/2),f=Math.trunc(a.y-i/2);let p=document.createElementNS(s,&quot;canvas&quot;);d(p,{width:l,height:c});const y=p.getContext(&quot;2d&quot;);let g=y.createImageData(l,c);const w=new b(o);&quot;objectBoundingBox&quot;===o.getAttribute(&quot;gradientUnits&quot;)&amp;&amp;w.scale(new x(l,c));const m=o.getAttribute(&quot;gradientTransform&quot;);null!=m&amp;&amp;w.transform(h(m)),&quot;userSpaceOnUse&quot;===o.getAttribute(&quot;gradientUnits&quot;)&amp;&amp;w.transform(new x(-u,-f)),w.paintMesh(g.data,p.width),y.putImageData(g,0,0);const M=document.createElementNS(t,&quot;image&quot;);d(M,{width:l,height:c,x:0,y:0});let S=p.toDataURL();M.setAttributeNS(e,&quot;xlink:href&quot;,S);const k=&quot;pattern_clip&quot;+n,A=document.createElementNS(t,&quot;pattern&quot;);d(A,{id:k,patternUnits:&quot;userSpaceOnUse&quot;,width:l,height:c,x:u,y:f}),A.appendChild(M),o.parentNode.appendChild(A),r.style.stroke=&quot;url(#&quot;+k+&quot;)&quot;,g=null,p=null,S=null}}})}();
</script>
</svg>
